<?xml version="1.0" encoding="UTF-8" standalone="no"?>
<!DOCTYPE svg PUBLIC "-//W3C//DTD SVG 1.1//EN"
 "http://www.w3.org/Graphics/SVG/1.1/DTD/svg11.dtd">
<!-- Generated by graphviz version 2.38.0 (20140413.2041)
 -->
<!-- Title: application/argumentparser.h Pages: 1 -->
<svg width="472pt" height="84pt"
 viewBox="0.00 0.00 471.50 84.00" xmlns="http://www.w3.org/2000/svg" xmlns:xlink="http://www.w3.org/1999/xlink">
<g id="graph0" class="graph" transform="scale(1 1) rotate(0) translate(4 80)">
<title>application/argumentparser.h</title>
<polygon fill="white" stroke="none" points="-4,4 -4,-80 467.5,-80 467.5,4 -4,4"/>
<!-- Node1 -->
<g id="node1" class="node"><title>Node1</title>
<polygon fill="#bfbfbf" stroke="black" points="133,-56.5 133,-75.5 275,-75.5 275,-56.5 133,-56.5"/>
<text text-anchor="middle" x="204" y="-63.5" font-family="Helvetica,sans-Serif" font-size="10.00">application/argumentparser.h</text>
</g>
<!-- Node2 -->
<g id="node2" class="node"><title>Node2</title>
<g id="a_node2"><a xlink:href="global_8h.html" target="_top" xlink:title="global.h">
<polygon fill="white" stroke="black" points="0,-0.5 0,-19.5 50,-19.5 50,-0.5 0,-0.5"/>
<text text-anchor="middle" x="25" y="-7.5" font-family="Helvetica,sans-Serif" font-size="10.00">global.h</text>
</a>
</g>
</g>
<!-- Node1&#45;&gt;Node2 -->
<g id="edge1" class="edge"><title>Node1&#45;&gt;Node2</title>
<path fill="none" stroke="midnightblue" d="M175.637,-56.4435C144.279,-46.9836 93.7415,-31.7377 59.9596,-21.5465"/>
<polygon fill="midnightblue" stroke="midnightblue" points="60.6381,-18.0954 50.0533,-18.558 58.6163,-24.7971 60.6381,-18.0954"/>
</g>
<!-- Node3 -->
<g id="node3" class="node"><title>Node3</title>
<polygon fill="white" stroke="#bfbfbf" points="68.5,-0.5 68.5,-19.5 109.5,-19.5 109.5,-0.5 68.5,-0.5"/>
<text text-anchor="middle" x="89" y="-7.5" font-family="Helvetica,sans-Serif" font-size="10.00">string</text>
</g>
<!-- Node1&#45;&gt;Node3 -->
<g id="edge2" class="edge"><title>Node1&#45;&gt;Node3</title>
<path fill="none" stroke="midnightblue" d="M185.778,-56.4435C167.104,-47.6751 137.844,-33.9355 116.383,-23.8579"/>
<polygon fill="midnightblue" stroke="midnightblue" points="117.676,-20.5988 107.137,-19.5164 114.701,-26.935 117.676,-20.5988"/>
</g>
<!-- Node4 -->
<g id="node4" class="node"><title>Node4</title>
<polygon fill="white" stroke="#bfbfbf" points="128,-0.5 128,-19.5 172,-19.5 172,-0.5 128,-0.5"/>
<text text-anchor="middle" x="150" y="-7.5" font-family="Helvetica,sans-Serif" font-size="10.00">vector</text>
</g>
<!-- Node1&#45;&gt;Node4 -->
<g id="edge3" class="edge"><title>Node1&#45;&gt;Node4</title>
<path fill="none" stroke="midnightblue" d="M195.083,-56.083C187.22,-48.2195 175.569,-36.5688 166.081,-27.0813"/>
<polygon fill="midnightblue" stroke="midnightblue" points="168.297,-24.3473 158.751,-19.7511 163.347,-29.2971 168.297,-24.3473"/>
</g>
<!-- Node5 -->
<g id="node5" class="node"><title>Node5</title>
<polygon fill="white" stroke="#bfbfbf" points="189.5,-0.5 189.5,-19.5 218.5,-19.5 218.5,-0.5 189.5,-0.5"/>
<text text-anchor="middle" x="204" y="-7.5" font-family="Helvetica,sans-Serif" font-size="10.00">list</text>
</g>
<!-- Node1&#45;&gt;Node5 -->
<g id="edge4" class="edge"><title>Node1&#45;&gt;Node5</title>
<path fill="none" stroke="midnightblue" d="M204,-56.083C204,-49.0059 204,-38.8611 204,-29.9865"/>
<polygon fill="midnightblue" stroke="midnightblue" points="207.5,-29.751 204,-19.7511 200.5,-29.7511 207.5,-29.751"/>
</g>
<!-- Node6 -->
<g id="node6" class="node"><title>Node6</title>
<polygon fill="white" stroke="#bfbfbf" points="236.5,-0.5 236.5,-19.5 309.5,-19.5 309.5,-0.5 236.5,-0.5"/>
<text text-anchor="middle" x="273" y="-7.5" font-family="Helvetica,sans-Serif" font-size="10.00">initializer_list</text>
</g>
<!-- Node1&#45;&gt;Node6 -->
<g id="edge5" class="edge"><title>Node1&#45;&gt;Node6</title>
<path fill="none" stroke="midnightblue" d="M215.086,-56.324C225.486,-48.1849 241.261,-35.8395 253.722,-26.0874"/>
<polygon fill="midnightblue" stroke="midnightblue" points="255.994,-28.7533 261.712,-19.8339 251.68,-23.2407 255.994,-28.7533"/>
</g>
<!-- Node7 -->
<g id="node7" class="node"><title>Node7</title>
<polygon fill="white" stroke="#bfbfbf" points="327.5,-0.5 327.5,-19.5 386.5,-19.5 386.5,-0.5 327.5,-0.5"/>
<text text-anchor="middle" x="357" y="-7.5" font-family="Helvetica,sans-Serif" font-size="10.00">functional</text>
</g>
<!-- Node1&#45;&gt;Node7 -->
<g id="edge6" class="edge"><title>Node1&#45;&gt;Node7</title>
<path fill="none" stroke="midnightblue" d="M228.243,-56.4435C253.871,-47.3986 294.485,-33.064 323.238,-22.9158"/>
<polygon fill="midnightblue" stroke="midnightblue" points="324.605,-26.1452 332.87,-19.5164 322.275,-19.5442 324.605,-26.1452"/>
</g>
<!-- Node8 -->
<g id="node8" class="node"><title>Node8</title>
<polygon fill="white" stroke="#bfbfbf" points="404.5,-0.5 404.5,-19.5 463.5,-19.5 463.5,-0.5 404.5,-0.5"/>
<text text-anchor="middle" x="434" y="-7.5" font-family="Helvetica,sans-Serif" font-size="10.00">stdexcept</text>
</g>
<!-- Node1&#45;&gt;Node8 -->
<g id="edge7" class="edge"><title>Node1&#45;&gt;Node8</title>
<path fill="none" stroke="midnightblue" d="M240.456,-56.4822C277.045,-47.9277 335.295,-34.2925 394.277,-20.4025"/>
<polygon fill="midnightblue" stroke="midnightblue" points="395.2,-23.7811 404.131,-18.0812 393.595,-16.9676 395.2,-23.7811"/>
</g>
</g>
</svg>
