<?xml version="1.0" encoding="UTF-8" standalone="no"?>
<!DOCTYPE svg PUBLIC "-//W3C//DTD SVG 1.1//EN"
 "http://www.w3.org/Graphics/SVG/1.1/DTD/svg11.dtd">
<!-- Generated by graphviz version 2.38.0 (20140413.2041)
 -->
<!-- Title: io/binaryreader.h Pages: 1 -->
<svg width="453pt" height="196pt"
 viewBox="0.00 0.00 453.00 196.00" xmlns="http://www.w3.org/2000/svg" xmlns:xlink="http://www.w3.org/1999/xlink">
<g id="graph0" class="graph" transform="scale(1 1) rotate(0) translate(4 192)">
<title>io/binaryreader.h</title>
<polygon fill="white" stroke="none" points="-4,4 -4,-192 449,-192 449,4 -4,4"/>
<!-- Node1 -->
<g id="node1" class="node"><title>Node1</title>
<polygon fill="#bfbfbf" stroke="black" points="227,-168.5 227,-187.5 316,-187.5 316,-168.5 227,-168.5"/>
<text text-anchor="middle" x="271.5" y="-175.5" font-family="Helvetica,sans-Serif" font-size="10.00">io/binaryreader.h</text>
</g>
<!-- Node2 -->
<g id="node2" class="node"><title>Node2</title>
<g id="a_node2"><a xlink:href="global_8h.html" target="_top" xlink:title="../application/global.h">
<polygon fill="white" stroke="black" points="0,-56.5 0,-75.5 109,-75.5 109,-56.5 0,-56.5"/>
<text text-anchor="middle" x="54.5" y="-63.5" font-family="Helvetica,sans-Serif" font-size="10.00">../application/global.h</text>
</a>
</g>
</g>
<!-- Node1&#45;&gt;Node2 -->
<g id="edge1" class="edge"><title>Node1&#45;&gt;Node2</title>
<path fill="none" stroke="midnightblue" d="M226.83,-174.35C169.042,-169.881 73.1923,-158.578 51.5,-132 41.0267,-119.168 43.5348,-99.7117 47.5897,-85.4293"/>
<polygon fill="midnightblue" stroke="midnightblue" points="50.9866,-86.3045 50.8027,-75.7112 44.3405,-84.1071 50.9866,-86.3045"/>
</g>
<!-- Node3 -->
<g id="node3" class="node"><title>Node3</title>
<g id="a_node3"><a xlink:href="types_8h.html" target="_top" xlink:title="../conversion/types.h">
<polygon fill="white" stroke="black" points="170.5,-56.5 170.5,-75.5 278.5,-75.5 278.5,-56.5 170.5,-56.5"/>
<text text-anchor="middle" x="224.5" y="-63.5" font-family="Helvetica,sans-Serif" font-size="10.00">../conversion/types.h</text>
</a>
</g>
</g>
<!-- Node1&#45;&gt;Node3 -->
<g id="edge2" class="edge"><title>Node1&#45;&gt;Node3</title>
<path fill="none" stroke="midnightblue" d="M267.812,-168.368C260.159,-150.456 242.413,-108.923 232.169,-84.9482"/>
<polygon fill="midnightblue" stroke="midnightblue" points="235.319,-83.412 228.171,-75.5914 228.882,-86.1624 235.319,-83.412"/>
</g>
<!-- Node5 -->
<g id="node5" class="node"><title>Node5</title>
<g id="a_node5"><a xlink:href="binaryconversion_8h.html" target="_top" xlink:title="../conversion/binaryconversion.h">
<polygon fill="white" stroke="black" points="60.5,-112.5 60.5,-131.5 218.5,-131.5 218.5,-112.5 60.5,-112.5"/>
<text text-anchor="middle" x="139.5" y="-119.5" font-family="Helvetica,sans-Serif" font-size="10.00">../conversion/binaryconversion.h</text>
</a>
</g>
</g>
<!-- Node1&#45;&gt;Node5 -->
<g id="edge4" class="edge"><title>Node1&#45;&gt;Node5</title>
<path fill="none" stroke="midnightblue" d="M250.584,-168.444C228.764,-159.517 194.35,-145.439 169.608,-135.317"/>
<polygon fill="midnightblue" stroke="midnightblue" points="170.899,-132.063 160.318,-131.516 168.248,-138.542 170.899,-132.063"/>
</g>
<!-- Node6 -->
<g id="node6" class="node"><title>Node6</title>
<polygon fill="white" stroke="#bfbfbf" points="274.5,-112.5 274.5,-131.5 318.5,-131.5 318.5,-112.5 274.5,-112.5"/>
<text text-anchor="middle" x="296.5" y="-119.5" font-family="Helvetica,sans-Serif" font-size="10.00">vector</text>
</g>
<!-- Node1&#45;&gt;Node6 -->
<g id="edge7" class="edge"><title>Node1&#45;&gt;Node6</title>
<path fill="none" stroke="midnightblue" d="M275.628,-168.083C279.014,-160.77 283.916,-150.181 288.119,-141.103"/>
<polygon fill="midnightblue" stroke="midnightblue" points="291.423,-142.296 292.449,-131.751 285.071,-139.355 291.423,-142.296"/>
</g>
<!-- Node7 -->
<g id="node7" class="node"><title>Node7</title>
<polygon fill="white" stroke="#bfbfbf" points="337,-112.5 337,-131.5 378,-131.5 378,-112.5 337,-112.5"/>
<text text-anchor="middle" x="357.5" y="-119.5" font-family="Helvetica,sans-Serif" font-size="10.00">string</text>
</g>
<!-- Node1&#45;&gt;Node7 -->
<g id="edge8" class="edge"><title>Node1&#45;&gt;Node7</title>
<path fill="none" stroke="midnightblue" d="M285.317,-168.324C298.733,-159.9 319.324,-146.971 335.086,-137.074"/>
<polygon fill="midnightblue" stroke="midnightblue" points="337.109,-139.936 343.717,-131.655 333.387,-134.008 337.109,-139.936"/>
</g>
<!-- Node8 -->
<g id="node8" class="node"><title>Node8</title>
<polygon fill="white" stroke="#bfbfbf" points="396,-112.5 396,-131.5 445,-131.5 445,-112.5 396,-112.5"/>
<text text-anchor="middle" x="420.5" y="-119.5" font-family="Helvetica,sans-Serif" font-size="10.00">istream</text>
</g>
<!-- Node1&#45;&gt;Node8 -->
<g id="edge9" class="edge"><title>Node1&#45;&gt;Node8</title>
<path fill="none" stroke="midnightblue" d="M295.109,-168.444C319.958,-159.438 359.274,-145.189 387.254,-135.049"/>
<polygon fill="midnightblue" stroke="midnightblue" points="388.792,-138.214 397.001,-131.516 386.407,-131.633 388.792,-138.214"/>
</g>
<!-- Node4 -->
<g id="node4" class="node"><title>Node4</title>
<polygon fill="white" stroke="#bfbfbf" points="201.5,-0.5 201.5,-19.5 247.5,-19.5 247.5,-0.5 201.5,-0.5"/>
<text text-anchor="middle" x="224.5" y="-7.5" font-family="Helvetica,sans-Serif" font-size="10.00">cstdint</text>
</g>
<!-- Node3&#45;&gt;Node4 -->
<g id="edge3" class="edge"><title>Node3&#45;&gt;Node4</title>
<path fill="none" stroke="midnightblue" d="M224.5,-56.083C224.5,-49.0059 224.5,-38.8611 224.5,-29.9865"/>
<polygon fill="midnightblue" stroke="midnightblue" points="228,-29.751 224.5,-19.7511 221,-29.7511 228,-29.751"/>
</g>
<!-- Node5&#45;&gt;Node2 -->
<g id="edge6" class="edge"><title>Node5&#45;&gt;Node2</title>
<path fill="none" stroke="midnightblue" d="M125.843,-112.324C112.584,-103.9 92.232,-90.9709 76.6538,-81.0741"/>
<polygon fill="midnightblue" stroke="midnightblue" points="78.4404,-78.0626 68.1228,-75.6545 74.6867,-83.9711 78.4404,-78.0626"/>
</g>
<!-- Node5&#45;&gt;Node3 -->
<g id="edge5" class="edge"><title>Node5&#45;&gt;Node3</title>
<path fill="none" stroke="midnightblue" d="M153.157,-112.324C166.416,-103.9 186.768,-90.9709 202.346,-81.0741"/>
<polygon fill="midnightblue" stroke="midnightblue" points="204.313,-83.9711 210.877,-75.6545 200.56,-78.0626 204.313,-83.9711"/>
</g>
</g>
</svg>
