<?xml version="1.0" encoding="UTF-8" standalone="no"?>
<!DOCTYPE svg PUBLIC "-//W3C//DTD SVG 1.1//EN"
 "http://www.w3.org/Graphics/SVG/1.1/DTD/svg11.dtd">
<!-- Generated by graphviz version 2.38.0 (20140413.2041)
 -->
<!-- Title: io/binaryreader.cpp Pages: 1 -->
<svg width="632pt" height="252pt"
 viewBox="0.00 0.00 632.27 252.00" xmlns="http://www.w3.org/2000/svg" xmlns:xlink="http://www.w3.org/1999/xlink">
<g id="graph0" class="graph" transform="scale(1 1) rotate(0) translate(4 248)">
<title>io/binaryreader.cpp</title>
<polygon fill="white" stroke="none" points="-4,4 -4,-248 628.266,-248 628.266,4 -4,4"/>
<!-- Node1 -->
<g id="node1" class="node"><title>Node1</title>
<polygon fill="#bfbfbf" stroke="black" points="415.766,-224.5 415.766,-243.5 514.766,-243.5 514.766,-224.5 415.766,-224.5"/>
<text text-anchor="middle" x="465.266" y="-231.5" font-family="Helvetica,sans-Serif" font-size="10.00">io/binaryreader.cpp</text>
</g>
<!-- Node2 -->
<g id="node2" class="node"><title>Node2</title>
<g id="a_node2"><a xlink:href="binaryreader_8h.html" target="_top" xlink:title="binaryreader.h">
<polygon fill="white" stroke="black" points="183.266,-168.5 183.266,-187.5 261.266,-187.5 261.266,-168.5 183.266,-168.5"/>
<text text-anchor="middle" x="222.266" y="-175.5" font-family="Helvetica,sans-Serif" font-size="10.00">binaryreader.h</text>
</a>
</g>
</g>
<!-- Node1&#45;&gt;Node2 -->
<g id="edge1" class="edge"><title>Node1&#45;&gt;Node2</title>
<path fill="none" stroke="midnightblue" d="M426.762,-224.444C384.46,-215.043 316.448,-199.929 270.593,-189.739"/>
<polygon fill="midnightblue" stroke="midnightblue" points="271.111,-186.269 260.59,-187.516 269.593,-193.102 271.111,-186.269"/>
</g>
<!-- Node10 -->
<g id="node10" class="node"><title>Node10</title>
<g id="a_node10"><a xlink:href="conversionexception_8h.html" target="_top" xlink:title="conversion/conversionexception.h">
<polygon fill="white" stroke="black" points="320.266,-168.5 320.266,-187.5 484.266,-187.5 484.266,-168.5 320.266,-168.5"/>
<text text-anchor="middle" x="402.266" y="-175.5" font-family="Helvetica,sans-Serif" font-size="10.00">conversion/conversionexception.h</text>
</a>
</g>
</g>
<!-- Node1&#45;&gt;Node10 -->
<g id="edge11" class="edge"><title>Node1&#45;&gt;Node10</title>
<path fill="none" stroke="midnightblue" d="M455.144,-224.324C445.74,-216.263 431.522,-204.077 420.197,-194.369"/>
<polygon fill="midnightblue" stroke="midnightblue" points="422.443,-191.684 412.573,-187.834 417.887,-196.999 422.443,-191.684"/>
</g>
<!-- Node12 -->
<g id="node12" class="node"><title>Node12</title>
<polygon fill="white" stroke="#bfbfbf" points="502.266,-168.5 502.266,-187.5 554.266,-187.5 554.266,-168.5 502.266,-168.5"/>
<text text-anchor="middle" x="528.266" y="-175.5" font-family="Helvetica,sans-Serif" font-size="10.00">sstream</text>
</g>
<!-- Node1&#45;&gt;Node12 -->
<g id="edge15" class="edge"><title>Node1&#45;&gt;Node12</title>
<path fill="none" stroke="midnightblue" d="M475.388,-224.324C484.793,-216.263 499.01,-204.077 510.335,-194.369"/>
<polygon fill="midnightblue" stroke="midnightblue" points="512.645,-196.999 517.96,-187.834 508.09,-191.684 512.645,-196.999"/>
</g>
<!-- Node13 -->
<g id="node13" class="node"><title>Node13</title>
<polygon fill="white" stroke="#bfbfbf" points="572.266,-168.5 572.266,-187.5 624.266,-187.5 624.266,-168.5 572.266,-168.5"/>
<text text-anchor="middle" x="598.266" y="-175.5" font-family="Helvetica,sans-Serif" font-size="10.00">memory</text>
</g>
<!-- Node1&#45;&gt;Node13 -->
<g id="edge16" class="edge"><title>Node1&#45;&gt;Node13</title>
<path fill="none" stroke="midnightblue" d="M486.341,-224.444C508.326,-215.517 543.001,-201.439 567.931,-191.317"/>
<polygon fill="midnightblue" stroke="midnightblue" points="569.342,-194.521 577.291,-187.516 566.709,-188.035 569.342,-194.521"/>
</g>
<!-- Node3 -->
<g id="node3" class="node"><title>Node3</title>
<g id="a_node3"><a xlink:href="global_8h.html" target="_top" xlink:title="../application/global.h">
<polygon fill="white" stroke="black" points="274.766,-56.5 274.766,-75.5 383.766,-75.5 383.766,-56.5 274.766,-56.5"/>
<text text-anchor="middle" x="329.266" y="-63.5" font-family="Helvetica,sans-Serif" font-size="10.00">../application/global.h</text>
</a>
</g>
</g>
<!-- Node2&#45;&gt;Node3 -->
<g id="edge2" class="edge"><title>Node2&#45;&gt;Node3</title>
<path fill="none" stroke="midnightblue" d="M252.34,-168.459C271.483,-161.556 295.389,-149.98 310.266,-132 321.148,-118.849 325.798,-99.7076 327.785,-85.6008"/>
<polygon fill="midnightblue" stroke="midnightblue" points="331.273,-85.8974 328.876,-75.5775 324.314,-85.1402 331.273,-85.8974"/>
</g>
<!-- Node4 -->
<g id="node4" class="node"><title>Node4</title>
<g id="a_node4"><a xlink:href="types_8h.html" target="_top" xlink:title="../conversion/types.h">
<polygon fill="white" stroke="black" points="40.2664,-56.5 40.2664,-75.5 148.266,-75.5 148.266,-56.5 40.2664,-56.5"/>
<text text-anchor="middle" x="94.2664" y="-63.5" font-family="Helvetica,sans-Serif" font-size="10.00">../conversion/types.h</text>
</a>
</g>
</g>
<!-- Node2&#45;&gt;Node4 -->
<g id="edge3" class="edge"><title>Node2&#45;&gt;Node4</title>
<path fill="none" stroke="midnightblue" d="M182.964,-174.63C126.622,-170.319 27.2464,-159.006 5.26639,-132 -13.3412,-109.138 22.6808,-90.2517 54.3186,-78.8361"/>
<polygon fill="midnightblue" stroke="midnightblue" points="55.6089,-82.0937 63.9312,-75.537 53.3365,-75.4728 55.6089,-82.0937"/>
</g>
<!-- Node6 -->
<g id="node6" class="node"><title>Node6</title>
<g id="a_node6"><a xlink:href="binaryconversion_8h.html" target="_top" xlink:title="../conversion/binaryconversion.h">
<polygon fill="white" stroke="black" points="143.266,-112.5 143.266,-131.5 301.266,-131.5 301.266,-112.5 143.266,-112.5"/>
<text text-anchor="middle" x="222.266" y="-119.5" font-family="Helvetica,sans-Serif" font-size="10.00">../conversion/binaryconversion.h</text>
</a>
</g>
</g>
<!-- Node2&#45;&gt;Node6 -->
<g id="edge5" class="edge"><title>Node2&#45;&gt;Node6</title>
<path fill="none" stroke="midnightblue" d="M222.266,-168.083C222.266,-161.006 222.266,-150.861 222.266,-141.986"/>
<polygon fill="midnightblue" stroke="midnightblue" points="225.766,-141.751 222.266,-131.751 218.766,-141.751 225.766,-141.751"/>
</g>
<!-- Node7 -->
<g id="node7" class="node"><title>Node7</title>
<polygon fill="white" stroke="#bfbfbf" points="14.2664,-112.5 14.2664,-131.5 58.2664,-131.5 58.2664,-112.5 14.2664,-112.5"/>
<text text-anchor="middle" x="36.2664" y="-119.5" font-family="Helvetica,sans-Serif" font-size="10.00">vector</text>
</g>
<!-- Node2&#45;&gt;Node7 -->
<g id="edge8" class="edge"><title>Node2&#45;&gt;Node7</title>
<path fill="none" stroke="midnightblue" d="M192.794,-168.444C158.764,-158.564 102.997,-142.373 68.0269,-132.221"/>
<polygon fill="midnightblue" stroke="midnightblue" points="68.8991,-128.83 58.3198,-129.403 66.9474,-135.552 68.8991,-128.83"/>
</g>
<!-- Node8 -->
<g id="node8" class="node"><title>Node8</title>
<polygon fill="white" stroke="#bfbfbf" points="357.766,-112.5 357.766,-131.5 398.766,-131.5 398.766,-112.5 357.766,-112.5"/>
<text text-anchor="middle" x="378.266" y="-119.5" font-family="Helvetica,sans-Serif" font-size="10.00">string</text>
</g>
<!-- Node2&#45;&gt;Node8 -->
<g id="edge9" class="edge"><title>Node2&#45;&gt;Node8</title>
<path fill="none" stroke="midnightblue" d="M246.985,-168.444C274.345,-158.973 318.457,-143.703 347.899,-133.512"/>
<polygon fill="midnightblue" stroke="midnightblue" points="349.344,-136.715 357.649,-130.137 347.054,-130.101 349.344,-136.715"/>
</g>
<!-- Node9 -->
<g id="node9" class="node"><title>Node9</title>
<polygon fill="white" stroke="#bfbfbf" points="76.7664,-112.5 76.7664,-131.5 125.766,-131.5 125.766,-112.5 76.7664,-112.5"/>
<text text-anchor="middle" x="101.266" y="-119.5" font-family="Helvetica,sans-Serif" font-size="10.00">istream</text>
</g>
<!-- Node2&#45;&gt;Node9 -->
<g id="edge10" class="edge"><title>Node2&#45;&gt;Node9</title>
<path fill="none" stroke="midnightblue" d="M203.094,-168.444C183.357,-159.636 152.381,-145.812 129.773,-135.722"/>
<polygon fill="midnightblue" stroke="midnightblue" points="130.908,-132.396 120.35,-131.516 128.055,-138.788 130.908,-132.396"/>
</g>
<!-- Node5 -->
<g id="node5" class="node"><title>Node5</title>
<polygon fill="white" stroke="#bfbfbf" points="71.2664,-0.5 71.2664,-19.5 117.266,-19.5 117.266,-0.5 71.2664,-0.5"/>
<text text-anchor="middle" x="94.2664" y="-7.5" font-family="Helvetica,sans-Serif" font-size="10.00">cstdint</text>
</g>
<!-- Node4&#45;&gt;Node5 -->
<g id="edge4" class="edge"><title>Node4&#45;&gt;Node5</title>
<path fill="none" stroke="midnightblue" d="M94.2664,-56.083C94.2664,-49.0059 94.2664,-38.8611 94.2664,-29.9865"/>
<polygon fill="midnightblue" stroke="midnightblue" points="97.7665,-29.751 94.2664,-19.7511 90.7665,-29.7511 97.7665,-29.751"/>
</g>
<!-- Node6&#45;&gt;Node3 -->
<g id="edge7" class="edge"><title>Node6&#45;&gt;Node3</title>
<path fill="none" stroke="midnightblue" d="M239.458,-112.324C256.617,-103.664 283.212,-90.2424 303.014,-80.249"/>
<polygon fill="midnightblue" stroke="midnightblue" points="304.767,-83.2847 312.118,-75.6545 301.613,-77.0354 304.767,-83.2847"/>
</g>
<!-- Node6&#45;&gt;Node4 -->
<g id="edge6" class="edge"><title>Node6&#45;&gt;Node4</title>
<path fill="none" stroke="midnightblue" d="M201.984,-112.444C180.919,-103.557 147.75,-89.5632 123.781,-79.4514"/>
<polygon fill="midnightblue" stroke="midnightblue" points="125.028,-76.1787 114.453,-75.5164 122.307,-82.6283 125.028,-76.1787"/>
</g>
<!-- Node10&#45;&gt;Node3 -->
<g id="edge12" class="edge"><title>Node10&#45;&gt;Node3</title>
<path fill="none" stroke="midnightblue" d="M406.079,-168.316C411.226,-155.162 418.631,-129.832 408.266,-112 399.53,-96.9696 383.688,-86.5428 368.472,-79.5405"/>
<polygon fill="midnightblue" stroke="midnightblue" points="369.722,-76.2692 359.147,-75.6125 367.004,-82.7202 369.722,-76.2692"/>
</g>
<!-- Node10&#45;&gt;Node8 -->
<g id="edge14" class="edge"><title>Node10&#45;&gt;Node8</title>
<path fill="none" stroke="midnightblue" d="M398.303,-168.083C395.053,-160.77 390.347,-150.181 386.312,-141.103"/>
<polygon fill="midnightblue" stroke="midnightblue" points="389.416,-139.468 382.156,-131.751 383.019,-142.311 389.416,-139.468"/>
</g>
<!-- Node11 -->
<g id="node11" class="node"><title>Node11</title>
<polygon fill="white" stroke="#bfbfbf" points="455.766,-112.5 455.766,-131.5 514.766,-131.5 514.766,-112.5 455.766,-112.5"/>
<text text-anchor="middle" x="485.266" y="-119.5" font-family="Helvetica,sans-Serif" font-size="10.00">stdexcept</text>
</g>
<!-- Node10&#45;&gt;Node11 -->
<g id="edge13" class="edge"><title>Node10&#45;&gt;Node11</title>
<path fill="none" stroke="midnightblue" d="M415.602,-168.324C428.428,-159.979 448.051,-147.212 463.206,-137.352"/>
<polygon fill="midnightblue" stroke="midnightblue" points="465.491,-140.042 471.964,-131.655 461.673,-134.174 465.491,-140.042"/>
</g>
</g>
</svg>
