<?xml version="1.0" encoding="UTF-8" standalone="no"?>
<!DOCTYPE svg PUBLIC "-//W3C//DTD SVG 1.1//EN"
 "http://www.w3.org/Graphics/SVG/1.1/DTD/svg11.dtd">
<!-- Generated by graphviz version 2.38.0 (20140413.2041)
 -->
<!-- Title: conversion/binaryconversion.h Pages: 1 -->
<svg width="895pt" height="196pt"
 viewBox="0.00 0.00 895.00 196.00" xmlns="http://www.w3.org/2000/svg" xmlns:xlink="http://www.w3.org/1999/xlink">
<g id="graph0" class="graph" transform="scale(1 1) rotate(0) translate(4 192)">
<title>conversion/binaryconversion.h</title>
<polygon fill="white" stroke="none" points="-4,4 -4,-192 891,-192 891,4 -4,4"/>
<!-- Node1 -->
<g id="node1" class="node"><title>Node1</title>
<polygon fill="#bfbfbf" stroke="black" points="509.5,-168.5 509.5,-187.5 658.5,-187.5 658.5,-168.5 509.5,-168.5"/>
<text text-anchor="middle" x="584" y="-175.5" font-family="Helvetica,sans-Serif" font-size="10.00">conversion/binaryconversion.h</text>
</g>
<!-- Node2 -->
<g id="node2" class="node"><title>Node2</title>
<g id="a_node2"><a xlink:href="stringconversion_8h.html" target="_top" xlink:title="conversion/stringconversion.h">
<polygon fill="white" stroke="black" points="269,-112.5 269,-131.5 415,-131.5 415,-112.5 269,-112.5"/>
<text text-anchor="middle" x="342" y="-119.5" font-family="Helvetica,sans-Serif" font-size="10.00">conversion/stringconversion.h</text>
</a>
</g>
</g>
<!-- Node1&#45;&gt;Node2 -->
<g id="edge1" class="edge"><title>Node1&#45;&gt;Node2</title>
<path fill="none" stroke="midnightblue" d="M535.677,-166.217C489.949,-156.013 422.221,-140.901 380.166,-131.516"/>
<polygon fill="midnightblue" stroke="midnightblue" points="535.132,-169.682 545.654,-168.444 536.657,-162.85 535.132,-169.682"/>
</g>
<!-- Node7 -->
<g id="node7" class="node"><title>Node7</title>
<g id="a_node7"><a xlink:href="binaryconversion_8cpp.html" target="_top" xlink:title="conversion/binaryconversion.cpp">
<polygon fill="white" stroke="black" points="433.5,-112.5 433.5,-131.5 592.5,-131.5 592.5,-112.5 433.5,-112.5"/>
<text text-anchor="middle" x="513" y="-119.5" font-family="Helvetica,sans-Serif" font-size="10.00">conversion/binaryconversion.cpp</text>
</a>
</g>
</g>
<!-- Node1&#45;&gt;Node7 -->
<g id="edge6" class="edge"><title>Node1&#45;&gt;Node7</title>
<path fill="none" stroke="midnightblue" d="M564.41,-162.101C551.632,-152.382 535.387,-140.027 524.615,-131.834"/>
<polygon fill="midnightblue" stroke="midnightblue" points="562.514,-165.056 572.593,-168.324 566.752,-159.484 562.514,-165.056"/>
</g>
<!-- Node8 -->
<g id="node8" class="node"><title>Node8</title>
<g id="a_node8"><a xlink:href="binaryreader_8h.html" target="_top" xlink:title="io/binaryreader.h">
<polygon fill="white" stroke="black" points="610.5,-112.5 610.5,-131.5 699.5,-131.5 699.5,-112.5 610.5,-112.5"/>
<text text-anchor="middle" x="655" y="-119.5" font-family="Helvetica,sans-Serif" font-size="10.00">io/binaryreader.h</text>
</a>
</g>
</g>
<!-- Node1&#45;&gt;Node8 -->
<g id="edge7" class="edge"><title>Node1&#45;&gt;Node8</title>
<path fill="none" stroke="midnightblue" d="M603.59,-162.101C616.368,-152.382 632.613,-140.027 643.385,-131.834"/>
<polygon fill="midnightblue" stroke="midnightblue" points="601.248,-159.484 595.407,-168.324 605.486,-165.056 601.248,-159.484"/>
</g>
<!-- Node12 -->
<g id="node12" class="node"><title>Node12</title>
<g id="a_node12"><a xlink:href="binarywriter_8h.html" target="_top" xlink:title="io/binarywriter.h">
<polygon fill="white" stroke="black" points="718,-112.5 718,-131.5 804,-131.5 804,-112.5 718,-112.5"/>
<text text-anchor="middle" x="761" y="-119.5" font-family="Helvetica,sans-Serif" font-size="10.00">io/binarywriter.h</text>
</a>
</g>
</g>
<!-- Node1&#45;&gt;Node12 -->
<g id="edge11" class="edge"><title>Node1&#45;&gt;Node12</title>
<path fill="none" stroke="midnightblue" d="M621.903,-165.436C655.275,-155.255 703.101,-140.664 733.085,-131.516"/>
<polygon fill="midnightblue" stroke="midnightblue" points="620.59,-162.178 612.046,-168.444 622.632,-168.873 620.59,-162.178"/>
</g>
<!-- Node3 -->
<g id="node3" class="node"><title>Node3</title>
<g id="a_node3"><a xlink:href="argumentparser_8cpp.html" target="_top" xlink:title="application/argumentparser.cpp">
<polygon fill="white" stroke="black" points="0,-56.5 0,-75.5 152,-75.5 152,-56.5 0,-56.5"/>
<text text-anchor="middle" x="76" y="-63.5" font-family="Helvetica,sans-Serif" font-size="10.00">application/argumentparser.cpp</text>
</a>
</g>
</g>
<!-- Node2&#45;&gt;Node3 -->
<g id="edge2" class="edge"><title>Node2&#45;&gt;Node3</title>
<path fill="none" stroke="midnightblue" d="M289.832,-110.41C239.561,-100.204 164.468,-84.9597 117.951,-75.5164"/>
<polygon fill="midnightblue" stroke="midnightblue" points="289.355,-113.884 299.852,-112.444 290.748,-107.024 289.355,-113.884"/>
</g>
<!-- Node4 -->
<g id="node4" class="node"><title>Node4</title>
<g id="a_node4"><a xlink:href="datetime_8cpp.html" target="_top" xlink:title="chrono/datetime.cpp">
<polygon fill="white" stroke="black" points="170.5,-56.5 170.5,-75.5 275.5,-75.5 275.5,-56.5 170.5,-56.5"/>
<text text-anchor="middle" x="223" y="-63.5" font-family="Helvetica,sans-Serif" font-size="10.00">chrono/datetime.cpp</text>
</a>
</g>
</g>
<!-- Node2&#45;&gt;Node4 -->
<g id="edge3" class="edge"><title>Node2&#45;&gt;Node4</title>
<path fill="none" stroke="midnightblue" d="M313.863,-108.232C291.604,-98.1312 261.144,-84.3091 241.768,-75.5164"/>
<polygon fill="midnightblue" stroke="midnightblue" points="312.591,-111.498 323.144,-112.444 315.484,-105.124 312.591,-111.498"/>
</g>
<!-- Node5 -->
<g id="node5" class="node"><title>Node5</title>
<g id="a_node5"><a xlink:href="timespan_8cpp.html" target="_top" xlink:title="chrono/timespan.cpp">
<polygon fill="white" stroke="black" points="293.5,-56.5 293.5,-75.5 400.5,-75.5 400.5,-56.5 293.5,-56.5"/>
<text text-anchor="middle" x="347" y="-63.5" font-family="Helvetica,sans-Serif" font-size="10.00">chrono/timespan.cpp</text>
</a>
</g>
</g>
<!-- Node2&#45;&gt;Node5 -->
<g id="edge4" class="edge"><title>Node2&#45;&gt;Node5</title>
<path fill="none" stroke="midnightblue" d="M343.75,-102.101C344.58,-93.1357 345.532,-82.8579 346.19,-75.7511"/>
<polygon fill="midnightblue" stroke="midnightblue" points="340.263,-101.803 342.826,-112.083 347.233,-102.448 340.263,-101.803"/>
</g>
<!-- Node6 -->
<g id="node6" class="node"><title>Node6</title>
<g id="a_node6"><a xlink:href="stringconversion_8cpp.html" target="_top" xlink:title="conversion/stringconversion.cpp">
<polygon fill="white" stroke="black" points="418.5,-56.5 418.5,-75.5 575.5,-75.5 575.5,-56.5 418.5,-56.5"/>
<text text-anchor="middle" x="497" y="-63.5" font-family="Helvetica,sans-Serif" font-size="10.00">conversion/stringconversion.cpp</text>
</a>
</g>
</g>
<!-- Node2&#45;&gt;Node6 -->
<g id="edge5" class="edge"><title>Node2&#45;&gt;Node6</title>
<path fill="none" stroke="midnightblue" d="M376.332,-109.039C405.497,-98.8786 446.637,-84.5457 472.555,-75.5164"/>
<polygon fill="midnightblue" stroke="midnightblue" points="374.852,-105.848 366.56,-112.444 377.155,-112.459 374.852,-105.848"/>
</g>
<!-- Node9 -->
<g id="node9" class="node"><title>Node9</title>
<g id="a_node9"><a xlink:href="binaryreader_8cpp.html" target="_top" xlink:title="io/binaryreader.cpp">
<polygon fill="white" stroke="black" points="601.5,-56.5 601.5,-75.5 700.5,-75.5 700.5,-56.5 601.5,-56.5"/>
<text text-anchor="middle" x="651" y="-63.5" font-family="Helvetica,sans-Serif" font-size="10.00">io/binaryreader.cpp</text>
</a>
</g>
</g>
<!-- Node8&#45;&gt;Node9 -->
<g id="edge8" class="edge"><title>Node8&#45;&gt;Node9</title>
<path fill="none" stroke="midnightblue" d="M653.6,-102.101C652.936,-93.1357 652.175,-82.8579 651.648,-75.7511"/>
<polygon fill="midnightblue" stroke="midnightblue" points="650.11,-102.369 654.339,-112.083 657.091,-101.852 650.11,-102.369"/>
</g>
<!-- Node10 -->
<g id="node10" class="node"><title>Node10</title>
<g id="a_node10"><a xlink:href="path_8h.html" target="_top" xlink:title="io/path.h">
<polygon fill="white" stroke="black" points="719,-56.5 719,-75.5 773,-75.5 773,-56.5 719,-56.5"/>
<text text-anchor="middle" x="746" y="-63.5" font-family="Helvetica,sans-Serif" font-size="10.00">io/path.h</text>
</a>
</g>
</g>
<!-- Node8&#45;&gt;Node10 -->
<g id="edge9" class="edge"><title>Node8&#45;&gt;Node10</title>
<path fill="none" stroke="midnightblue" d="M678.294,-107.177C695.039,-97.2407 717.1,-84.1492 731.416,-75.6545"/>
<polygon fill="midnightblue" stroke="midnightblue" points="676.434,-104.211 669.621,-112.324 680.007,-110.231 676.434,-104.211"/>
</g>
<!-- Node11 -->
<g id="node11" class="node"><title>Node11</title>
<g id="a_node11"><a xlink:href="path_8cpp.html" target="_top" xlink:title="io/path.cpp">
<polygon fill="white" stroke="black" points="713.5,-0.5 713.5,-19.5 778.5,-19.5 778.5,-0.5 713.5,-0.5"/>
<text text-anchor="middle" x="746" y="-7.5" font-family="Helvetica,sans-Serif" font-size="10.00">io/path.cpp</text>
</a>
</g>
</g>
<!-- Node10&#45;&gt;Node11 -->
<g id="edge10" class="edge"><title>Node10&#45;&gt;Node11</title>
<path fill="none" stroke="midnightblue" d="M746,-45.8045C746,-36.9102 746,-26.7798 746,-19.7511"/>
<polygon fill="midnightblue" stroke="midnightblue" points="742.5,-46.083 746,-56.083 749.5,-46.083 742.5,-46.083"/>
</g>
<!-- Node12&#45;&gt;Node10 -->
<g id="edge13" class="edge"><title>Node12&#45;&gt;Node10</title>
<path fill="none" stroke="midnightblue" d="M755.832,-102.396C753.323,-93.362 750.427,-82.936 748.431,-75.7511"/>
<polygon fill="midnightblue" stroke="midnightblue" points="752.474,-103.385 758.523,-112.083 759.219,-101.511 752.474,-103.385"/>
</g>
<!-- Node13 -->
<g id="node13" class="node"><title>Node13</title>
<g id="a_node13"><a xlink:href="binarywriter_8cpp.html" target="_top" xlink:title="io/binarywriter.cpp">
<polygon fill="white" stroke="black" points="791,-56.5 791,-75.5 887,-75.5 887,-56.5 791,-56.5"/>
<text text-anchor="middle" x="839" y="-63.5" font-family="Helvetica,sans-Serif" font-size="10.00">io/binarywriter.cpp</text>
</a>
</g>
</g>
<!-- Node12&#45;&gt;Node13 -->
<g id="edge12" class="edge"><title>Node12&#45;&gt;Node13</title>
<path fill="none" stroke="midnightblue" d="M781.768,-106.622C796.017,-96.7574 814.456,-83.9919 826.499,-75.6545"/>
<polygon fill="midnightblue" stroke="midnightblue" points="779.762,-103.754 773.532,-112.324 783.746,-109.51 779.762,-103.754"/>
</g>
</g>
</svg>
