<?xml version="1.0" encoding="UTF-8" standalone="no"?>
<!DOCTYPE svg PUBLIC "-//W3C//DTD SVG 1.1//EN"
 "http://www.w3.org/Graphics/SVG/1.1/DTD/svg11.dtd">
<!-- Generated by graphviz version 2.38.0 (20140413.2041)
 -->
<!-- Title: io/binaryreader.h Pages: 1 -->
<svg width="185pt" height="140pt"
 viewBox="0.00 0.00 185.00 140.00" xmlns="http://www.w3.org/2000/svg" xmlns:xlink="http://www.w3.org/1999/xlink">
<g id="graph0" class="graph" transform="scale(1 1) rotate(0) translate(4 136)">
<title>io/binaryreader.h</title>
<polygon fill="white" stroke="none" points="-4,4 -4,-136 181,-136 181,4 -4,4"/>
<!-- Node1 -->
<g id="node1" class="node"><title>Node1</title>
<polygon fill="#bfbfbf" stroke="black" points="52,-112.5 52,-131.5 141,-131.5 141,-112.5 52,-112.5"/>
<text text-anchor="middle" x="96.5" y="-119.5" font-family="Helvetica,sans-Serif" font-size="10.00">io/binaryreader.h</text>
</g>
<!-- Node2 -->
<g id="node2" class="node"><title>Node2</title>
<g id="a_node2"><a xlink:href="binaryreader_8cpp.html" target="_top" xlink:title="io/binaryreader.cpp">
<polygon fill="white" stroke="black" points="0,-56.5 0,-75.5 99,-75.5 99,-56.5 0,-56.5"/>
<text text-anchor="middle" x="49.5" y="-63.5" font-family="Helvetica,sans-Serif" font-size="10.00">io/binaryreader.cpp</text>
</a>
</g>
</g>
<!-- Node1&#45;&gt;Node2 -->
<g id="edge1" class="edge"><title>Node1&#45;&gt;Node2</title>
<path fill="none" stroke="midnightblue" d="M82.0792,-104.431C73.8419,-94.9673 63.8461,-83.4827 57.1167,-75.7511"/>
<polygon fill="midnightblue" stroke="midnightblue" points="79.5336,-106.838 88.7389,-112.083 84.8137,-102.242 79.5336,-106.838"/>
</g>
<!-- Node3 -->
<g id="node3" class="node"><title>Node3</title>
<g id="a_node3"><a xlink:href="path_8h.html" target="_top" xlink:title="io/path.h">
<polygon fill="white" stroke="black" points="117.5,-56.5 117.5,-75.5 171.5,-75.5 171.5,-56.5 117.5,-56.5"/>
<text text-anchor="middle" x="144.5" y="-63.5" font-family="Helvetica,sans-Serif" font-size="10.00">io/path.h</text>
</a>
</g>
</g>
<!-- Node1&#45;&gt;Node3 -->
<g id="edge2" class="edge"><title>Node1&#45;&gt;Node3</title>
<path fill="none" stroke="midnightblue" d="M111.228,-104.431C119.64,-94.9673 129.849,-83.4827 136.721,-75.7511"/>
<polygon fill="midnightblue" stroke="midnightblue" points="108.454,-102.284 104.426,-112.083 113.686,-106.934 108.454,-102.284"/>
</g>
<!-- Node4 -->
<g id="node4" class="node"><title>Node4</title>
<g id="a_node4"><a xlink:href="path_8cpp.html" target="_top" xlink:title="io/path.cpp">
<polygon fill="white" stroke="black" points="112,-0.5 112,-19.5 177,-19.5 177,-0.5 112,-0.5"/>
<text text-anchor="middle" x="144.5" y="-7.5" font-family="Helvetica,sans-Serif" font-size="10.00">io/path.cpp</text>
</a>
</g>
</g>
<!-- Node3&#45;&gt;Node4 -->
<g id="edge3" class="edge"><title>Node3&#45;&gt;Node4</title>
<path fill="none" stroke="midnightblue" d="M144.5,-45.8045C144.5,-36.9102 144.5,-26.7798 144.5,-19.7511"/>
<polygon fill="midnightblue" stroke="midnightblue" points="141,-46.083 144.5,-56.083 148,-46.083 141,-46.083"/>
</g>
</g>
</svg>
