<?xml version="1.0" encoding="UTF-8" standalone="no"?>
<!DOCTYPE svg PUBLIC "-//W3C//DTD SVG 1.1//EN"
 "http://www.w3.org/Graphics/SVG/1.1/DTD/svg11.dtd">
<!-- Generated by graphviz version 2.38.0 (20140413.2041)
 -->
<!-- Title: conversion/binaryconversion.cpp Pages: 1 -->
<svg width="361pt" height="196pt"
 viewBox="0.00 0.00 360.50 196.00" xmlns="http://www.w3.org/2000/svg" xmlns:xlink="http://www.w3.org/1999/xlink">
<g id="graph0" class="graph" transform="scale(1 1) rotate(0) translate(4 192)">
<title>conversion/binaryconversion.cpp</title>
<polygon fill="white" stroke="none" points="-4,4 -4,-192 356.5,-192 356.5,4 -4,4"/>
<!-- Node1 -->
<g id="node1" class="node"><title>Node1</title>
<polygon fill="#bfbfbf" stroke="black" points="144,-168.5 144,-187.5 303,-187.5 303,-168.5 144,-168.5"/>
<text text-anchor="middle" x="223.5" y="-175.5" font-family="Helvetica,sans-Serif" font-size="10.00">conversion/binaryconversion.cpp</text>
</g>
<!-- Node2 -->
<g id="node2" class="node"><title>Node2</title>
<g id="a_node2"><a xlink:href="binaryconversion_8h.html" target="_top" xlink:title="binaryconversion.h">
<polygon fill="white" stroke="black" points="50.5,-112.5 50.5,-131.5 148.5,-131.5 148.5,-112.5 50.5,-112.5"/>
<text text-anchor="middle" x="99.5" y="-119.5" font-family="Helvetica,sans-Serif" font-size="10.00">binaryconversion.h</text>
</a>
</g>
</g>
<!-- Node1&#45;&gt;Node2 -->
<g id="edge1" class="edge"><title>Node1&#45;&gt;Node2</title>
<path fill="none" stroke="midnightblue" d="M203.852,-168.444C183.535,-159.596 151.597,-145.687 128.402,-135.586"/>
<polygon fill="midnightblue" stroke="midnightblue" points="129.622,-132.3 119.056,-131.516 126.827,-138.718 129.622,-132.3"/>
</g>
<!-- Node6 -->
<g id="node6" class="node"><title>Node6</title>
<g id="a_node6"><a xlink:href="conversionexception_8h.html" target="_top" xlink:title="conversionexception.h">
<polygon fill="white" stroke="black" points="166.5,-112.5 166.5,-131.5 280.5,-131.5 280.5,-112.5 166.5,-112.5"/>
<text text-anchor="middle" x="223.5" y="-119.5" font-family="Helvetica,sans-Serif" font-size="10.00">conversionexception.h</text>
</a>
</g>
</g>
<!-- Node1&#45;&gt;Node6 -->
<g id="edge5" class="edge"><title>Node1&#45;&gt;Node6</title>
<path fill="none" stroke="midnightblue" d="M223.5,-168.083C223.5,-161.006 223.5,-150.861 223.5,-141.986"/>
<polygon fill="midnightblue" stroke="midnightblue" points="227,-141.751 223.5,-131.751 220,-141.751 227,-141.751"/>
</g>
<!-- Node9 -->
<g id="node9" class="node"><title>Node9</title>
<polygon fill="white" stroke="#bfbfbf" points="298.5,-112.5 298.5,-131.5 352.5,-131.5 352.5,-112.5 298.5,-112.5"/>
<text text-anchor="middle" x="325.5" y="-119.5" font-family="Helvetica,sans-Serif" font-size="10.00">iostream</text>
</g>
<!-- Node1&#45;&gt;Node9 -->
<g id="edge9" class="edge"><title>Node1&#45;&gt;Node9</title>
<path fill="none" stroke="midnightblue" d="M239.888,-168.324C256.171,-159.703 281.367,-146.364 300.216,-136.386"/>
<polygon fill="midnightblue" stroke="midnightblue" points="301.952,-139.427 309.153,-131.655 298.677,-133.24 301.952,-139.427"/>
</g>
<!-- Node3 -->
<g id="node3" class="node"><title>Node3</title>
<g id="a_node3"><a xlink:href="types_8h.html" target="_top" xlink:title="types.h">
<polygon fill="white" stroke="black" points="0,-56.5 0,-75.5 49,-75.5 49,-56.5 0,-56.5"/>
<text text-anchor="middle" x="24.5" y="-63.5" font-family="Helvetica,sans-Serif" font-size="10.00">types.h</text>
</a>
</g>
</g>
<!-- Node2&#45;&gt;Node3 -->
<g id="edge2" class="edge"><title>Node2&#45;&gt;Node3</title>
<path fill="none" stroke="midnightblue" d="M87.45,-112.324C76.0369,-104.107 58.669,-91.6017 45.0651,-81.8069"/>
<polygon fill="midnightblue" stroke="midnightblue" points="46.9297,-78.8366 36.7693,-75.8339 42.8396,-84.5174 46.9297,-78.8366"/>
</g>
<!-- Node5 -->
<g id="node5" class="node"><title>Node5</title>
<g id="a_node5"><a xlink:href="global_8h.html" target="_top" xlink:title="../application/global.h">
<polygon fill="white" stroke="black" points="67,-56.5 67,-75.5 176,-75.5 176,-56.5 67,-56.5"/>
<text text-anchor="middle" x="121.5" y="-63.5" font-family="Helvetica,sans-Serif" font-size="10.00">../application/global.h</text>
</a>
</g>
</g>
<!-- Node2&#45;&gt;Node5 -->
<g id="edge4" class="edge"><title>Node2&#45;&gt;Node5</title>
<path fill="none" stroke="midnightblue" d="M103.133,-112.083C106.112,-104.77 110.426,-94.1814 114.125,-85.1034"/>
<polygon fill="midnightblue" stroke="midnightblue" points="117.403,-86.3326 117.935,-75.7511 110.92,-83.6914 117.403,-86.3326"/>
</g>
<!-- Node4 -->
<g id="node4" class="node"><title>Node4</title>
<polygon fill="white" stroke="#bfbfbf" points="1.5,-0.5 1.5,-19.5 47.5,-19.5 47.5,-0.5 1.5,-0.5"/>
<text text-anchor="middle" x="24.5" y="-7.5" font-family="Helvetica,sans-Serif" font-size="10.00">cstdint</text>
</g>
<!-- Node3&#45;&gt;Node4 -->
<g id="edge3" class="edge"><title>Node3&#45;&gt;Node4</title>
<path fill="none" stroke="midnightblue" d="M24.5,-56.083C24.5,-49.0059 24.5,-38.8611 24.5,-29.9865"/>
<polygon fill="midnightblue" stroke="midnightblue" points="28.0001,-29.751 24.5,-19.7511 21.0001,-29.7511 28.0001,-29.751"/>
</g>
<!-- Node6&#45;&gt;Node5 -->
<g id="edge6" class="edge"><title>Node6&#45;&gt;Node5</title>
<path fill="none" stroke="midnightblue" d="M207.112,-112.324C190.829,-103.703 165.633,-90.3643 146.784,-80.3855"/>
<polygon fill="midnightblue" stroke="midnightblue" points="148.323,-77.2402 137.847,-75.6545 145.048,-83.4267 148.323,-77.2402"/>
</g>
<!-- Node7 -->
<g id="node7" class="node"><title>Node7</title>
<polygon fill="white" stroke="#bfbfbf" points="194,-56.5 194,-75.5 253,-75.5 253,-56.5 194,-56.5"/>
<text text-anchor="middle" x="223.5" y="-63.5" font-family="Helvetica,sans-Serif" font-size="10.00">stdexcept</text>
</g>
<!-- Node6&#45;&gt;Node7 -->
<g id="edge7" class="edge"><title>Node6&#45;&gt;Node7</title>
<path fill="none" stroke="midnightblue" d="M223.5,-112.083C223.5,-105.006 223.5,-94.8611 223.5,-85.9865"/>
<polygon fill="midnightblue" stroke="midnightblue" points="227,-85.751 223.5,-75.7511 220,-85.7511 227,-85.751"/>
</g>
<!-- Node8 -->
<g id="node8" class="node"><title>Node8</title>
<polygon fill="white" stroke="#bfbfbf" points="271,-56.5 271,-75.5 312,-75.5 312,-56.5 271,-56.5"/>
<text text-anchor="middle" x="291.5" y="-63.5" font-family="Helvetica,sans-Serif" font-size="10.00">string</text>
</g>
<!-- Node6&#45;&gt;Node8 -->
<g id="edge8" class="edge"><title>Node6&#45;&gt;Node8</title>
<path fill="none" stroke="midnightblue" d="M234.425,-112.324C244.675,-104.185 260.221,-91.8395 272.501,-82.0874"/>
<polygon fill="midnightblue" stroke="midnightblue" points="274.721,-84.7937 280.376,-75.8339 270.368,-79.3119 274.721,-84.7937"/>
</g>
</g>
</svg>
