<?xml version="1.0" encoding="UTF-8" standalone="no"?>
<!DOCTYPE svg PUBLIC "-//W3C//DTD SVG 1.1//EN"
 "http://www.w3.org/Graphics/SVG/1.1/DTD/svg11.dtd">
<!-- Generated by graphviz version 2.38.0 (20140413.2041)
 -->
<!-- Title: chrono/datetime.cpp Pages: 1 -->
<svg width="853pt" height="252pt"
 viewBox="0.00 0.00 852.50 252.00" xmlns="http://www.w3.org/2000/svg" xmlns:xlink="http://www.w3.org/1999/xlink">
<g id="graph0" class="graph" transform="scale(1 1) rotate(0) translate(4 248)">
<title>chrono/datetime.cpp</title>
<polygon fill="white" stroke="none" points="-4,4 -4,-248 848.5,-248 848.5,4 -4,4"/>
<!-- Node1 -->
<g id="node1" class="node"><title>Node1</title>
<polygon fill="#bfbfbf" stroke="black" points="634.5,-224.5 634.5,-243.5 739.5,-243.5 739.5,-224.5 634.5,-224.5"/>
<text text-anchor="middle" x="687" y="-231.5" font-family="Helvetica,sans-Serif" font-size="10.00">chrono/datetime.cpp</text>
</g>
<!-- Node2 -->
<g id="node2" class="node"><title>Node2</title>
<g id="a_node2"><a xlink:href="datetime_8h.html" target="_top" xlink:title="datetime.h">
<polygon fill="white" stroke="black" points="180,-168.5 180,-187.5 242,-187.5 242,-168.5 180,-168.5"/>
<text text-anchor="middle" x="211" y="-175.5" font-family="Helvetica,sans-Serif" font-size="10.00">datetime.h</text>
</a>
</g>
</g>
<!-- Node1&#45;&gt;Node2 -->
<g id="edge1" class="edge"><title>Node1&#45;&gt;Node2</title>
<path fill="none" stroke="midnightblue" d="M634.241,-227.015C538.526,-216.156 338.204,-193.431 251.946,-183.645"/>
<polygon fill="midnightblue" stroke="midnightblue" points="252.337,-180.167 242.007,-182.518 251.548,-187.123 252.337,-180.167"/>
</g>
<!-- Node8 -->
<g id="node8" class="node"><title>Node8</title>
<g id="a_node8"><a xlink:href="stringconversion_8h.html" target="_top" xlink:title="../conversion/stringconversion.h">
<polygon fill="white" stroke="black" points="423.5,-168.5 423.5,-187.5 578.5,-187.5 578.5,-168.5 423.5,-168.5"/>
<text text-anchor="middle" x="501" y="-175.5" font-family="Helvetica,sans-Serif" font-size="10.00">../conversion/stringconversion.h</text>
</a>
</g>
</g>
<!-- Node1&#45;&gt;Node8 -->
<g id="edge9" class="edge"><title>Node1&#45;&gt;Node8</title>
<path fill="none" stroke="midnightblue" d="M657.528,-224.444C625.829,-215.241 575.268,-200.562 540.225,-190.388"/>
<polygon fill="midnightblue" stroke="midnightblue" points="540.914,-186.943 530.334,-187.516 538.962,-193.666 540.914,-186.943"/>
</g>
<!-- Node10 -->
<g id="node10" class="node"><title>Node10</title>
<polygon fill="white" stroke="#bfbfbf" points="633.5,-56.5 633.5,-75.5 692.5,-75.5 692.5,-56.5 633.5,-56.5"/>
<text text-anchor="middle" x="663" y="-63.5" font-family="Helvetica,sans-Serif" font-size="10.00">stdexcept</text>
</g>
<!-- Node1&#45;&gt;Node10 -->
<g id="edge25" class="edge"><title>Node1&#45;&gt;Node10</title>
<path fill="none" stroke="midnightblue" d="M698.762,-224.347C724.559,-204.288 781.822,-153.181 756,-112 744.262,-93.2801 722.286,-82.1563 702.643,-75.6528"/>
<polygon fill="midnightblue" stroke="midnightblue" points="703.532,-72.2653 692.948,-72.7378 701.516,-78.9689 703.532,-72.2653"/>
</g>
<!-- Node12 -->
<g id="node12" class="node"><title>Node12</title>
<polygon fill="white" stroke="#bfbfbf" points="627,-112.5 627,-131.5 679,-131.5 679,-112.5 627,-112.5"/>
<text text-anchor="middle" x="653" y="-119.5" font-family="Helvetica,sans-Serif" font-size="10.00">sstream</text>
</g>
<!-- Node1&#45;&gt;Node12 -->
<g id="edge22" class="edge"><title>Node1&#45;&gt;Node12</title>
<path fill="none" stroke="midnightblue" d="M684.332,-224.368C678.82,-206.537 666.073,-165.295 658.648,-141.272"/>
<polygon fill="midnightblue" stroke="midnightblue" points="661.953,-140.112 655.656,-131.591 655.265,-142.179 661.953,-140.112"/>
</g>
<!-- Node13 -->
<g id="node13" class="node"><title>Node13</title>
<polygon fill="white" stroke="#bfbfbf" points="697,-112.5 697,-131.5 747,-131.5 747,-112.5 697,-112.5"/>
<text text-anchor="middle" x="722" y="-119.5" font-family="Helvetica,sans-Serif" font-size="10.00">iomanip</text>
</g>
<!-- Node1&#45;&gt;Node13 -->
<g id="edge23" class="edge"><title>Node1&#45;&gt;Node13</title>
<path fill="none" stroke="midnightblue" d="M689.746,-224.368C695.42,-206.537 708.542,-165.295 716.186,-141.272"/>
<polygon fill="midnightblue" stroke="midnightblue" points="719.57,-142.182 719.266,-131.591 712.899,-140.059 719.57,-142.182"/>
</g>
<!-- Node16 -->
<g id="node16" class="node"><title>Node16</title>
<polygon fill="white" stroke="#bfbfbf" points="803.5,-168.5 803.5,-187.5 844.5,-187.5 844.5,-168.5 803.5,-168.5"/>
<text text-anchor="middle" x="824" y="-175.5" font-family="Helvetica,sans-Serif" font-size="10.00">ctime</text>
</g>
<!-- Node1&#45;&gt;Node16 -->
<g id="edge24" class="edge"><title>Node1&#45;&gt;Node16</title>
<path fill="none" stroke="midnightblue" d="M708.708,-224.444C731.621,-215.412 767.914,-201.107 793.654,-190.961"/>
<polygon fill="midnightblue" stroke="midnightblue" points="795.27,-194.086 803.29,-187.163 792.703,-187.574 795.27,-194.086"/>
</g>
<!-- Node3 -->
<g id="node3" class="node"><title>Node3</title>
<g id="a_node3"><a xlink:href="timespan_8h.html" target="_top" xlink:title="timespan.h">
<polygon fill="white" stroke="black" points="147.5,-112.5 147.5,-131.5 212.5,-131.5 212.5,-112.5 147.5,-112.5"/>
<text text-anchor="middle" x="180" y="-119.5" font-family="Helvetica,sans-Serif" font-size="10.00">timespan.h</text>
</a>
</g>
</g>
<!-- Node2&#45;&gt;Node3 -->
<g id="edge2" class="edge"><title>Node2&#45;&gt;Node3</title>
<path fill="none" stroke="midnightblue" d="M205.881,-168.083C201.592,-160.613 195.342,-149.724 190.058,-140.52"/>
<polygon fill="midnightblue" stroke="midnightblue" points="193.038,-138.681 185.024,-131.751 186.967,-142.166 193.038,-138.681"/>
</g>
<!-- Node5 -->
<g id="node5" class="node"><title>Node5</title>
<g id="a_node5"><a xlink:href="types_8h.html" target="_top" xlink:title="../conversion/types.h">
<polygon fill="white" stroke="black" points="0,-56.5 0,-75.5 108,-75.5 108,-56.5 0,-56.5"/>
<text text-anchor="middle" x="54" y="-63.5" font-family="Helvetica,sans-Serif" font-size="10.00">../conversion/types.h</text>
</a>
</g>
</g>
<!-- Node2&#45;&gt;Node5 -->
<g id="edge7" class="edge"><title>Node2&#45;&gt;Node5</title>
<path fill="none" stroke="midnightblue" d="M179.913,-174.186C131.429,-169.081 41.3387,-156.484 22,-132 10.1387,-116.983 23.6778,-96.8577 36.6158,-82.9997"/>
<polygon fill="midnightblue" stroke="midnightblue" points="39.3696,-85.1958 43.9675,-75.6506 34.4207,-80.2452 39.3696,-85.1958"/>
</g>
<!-- Node7 -->
<g id="node7" class="node"><title>Node7</title>
<polygon fill="white" stroke="#bfbfbf" points="255.5,-56.5 255.5,-75.5 296.5,-75.5 296.5,-56.5 255.5,-56.5"/>
<text text-anchor="middle" x="276" y="-63.5" font-family="Helvetica,sans-Serif" font-size="10.00">string</text>
</g>
<!-- Node2&#45;&gt;Node7 -->
<g id="edge8" class="edge"><title>Node2&#45;&gt;Node7</title>
<path fill="none" stroke="midnightblue" d="M216.1,-168.368C226.78,-150.296 251.668,-108.176 265.773,-84.3074"/>
<polygon fill="midnightblue" stroke="midnightblue" points="268.849,-85.9813 270.923,-75.5914 262.823,-82.4201 268.849,-85.9813"/>
</g>
<!-- Node4 -->
<g id="node4" class="node"><title>Node4</title>
<g id="a_node4"><a xlink:href="global_8h.html" target="_top" xlink:title="../application/global.h">
<polygon fill="white" stroke="black" points="126.5,-56.5 126.5,-75.5 235.5,-75.5 235.5,-56.5 126.5,-56.5"/>
<text text-anchor="middle" x="181" y="-63.5" font-family="Helvetica,sans-Serif" font-size="10.00">../application/global.h</text>
</a>
</g>
</g>
<!-- Node3&#45;&gt;Node4 -->
<g id="edge3" class="edge"><title>Node3&#45;&gt;Node4</title>
<path fill="none" stroke="midnightblue" d="M180.165,-112.083C180.296,-105.006 180.484,-94.8611 180.648,-85.9865"/>
<polygon fill="midnightblue" stroke="midnightblue" points="184.152,-85.8142 180.838,-75.7511 177.153,-85.6845 184.152,-85.8142"/>
</g>
<!-- Node3&#45;&gt;Node5 -->
<g id="edge4" class="edge"><title>Node3&#45;&gt;Node5</title>
<path fill="none" stroke="midnightblue" d="M160.035,-112.444C139.391,-103.596 106.937,-89.6875 83.3684,-79.5865"/>
<polygon fill="midnightblue" stroke="midnightblue" points="84.4419,-76.2387 73.8717,-75.5164 81.6844,-82.6727 84.4419,-76.2387"/>
</g>
<!-- Node3&#45;&gt;Node7 -->
<g id="edge6" class="edge"><title>Node3&#45;&gt;Node7</title>
<path fill="none" stroke="midnightblue" d="M195.424,-112.324C210.54,-103.822 233.815,-90.7288 251.471,-80.7975"/>
<polygon fill="midnightblue" stroke="midnightblue" points="253.614,-83.6077 260.614,-75.6545 250.183,-77.5066 253.614,-83.6077"/>
</g>
<!-- Node6 -->
<g id="node6" class="node"><title>Node6</title>
<polygon fill="white" stroke="#bfbfbf" points="31,-0.5 31,-19.5 77,-19.5 77,-0.5 31,-0.5"/>
<text text-anchor="middle" x="54" y="-7.5" font-family="Helvetica,sans-Serif" font-size="10.00">cstdint</text>
</g>
<!-- Node5&#45;&gt;Node6 -->
<g id="edge5" class="edge"><title>Node5&#45;&gt;Node6</title>
<path fill="none" stroke="midnightblue" d="M54,-56.083C54,-49.0059 54,-38.8611 54,-29.9865"/>
<polygon fill="midnightblue" stroke="midnightblue" points="57.5001,-29.751 54,-19.7511 50.5001,-29.7511 57.5001,-29.751"/>
</g>
<!-- Node8&#45;&gt;Node7 -->
<g id="edge17" class="edge"><title>Node8&#45;&gt;Node7</title>
<path fill="none" stroke="midnightblue" d="M428.226,-168.474C378.088,-161.216 317.177,-149.207 298,-132 284.857,-120.207 279.558,-100.281 277.426,-85.5925"/>
<polygon fill="midnightblue" stroke="midnightblue" points="280.9,-85.1637 276.336,-75.6026 273.942,-85.9234 280.9,-85.1637"/>
</g>
<!-- Node9 -->
<g id="node9" class="node"><title>Node9</title>
<g id="a_node9"><a xlink:href="conversionexception_8h.html" target="_top" xlink:title="conversionexception.h">
<polygon fill="white" stroke="black" points="495,-112.5 495,-131.5 609,-131.5 609,-112.5 495,-112.5"/>
<text text-anchor="middle" x="552" y="-119.5" font-family="Helvetica,sans-Serif" font-size="10.00">conversionexception.h</text>
</a>
</g>
</g>
<!-- Node8&#45;&gt;Node9 -->
<g id="edge10" class="edge"><title>Node8&#45;&gt;Node9</title>
<path fill="none" stroke="midnightblue" d="M509.422,-168.083C516.848,-160.22 527.852,-148.569 536.812,-139.081"/>
<polygon fill="midnightblue" stroke="midnightblue" points="539.413,-141.424 543.735,-131.751 534.324,-136.618 539.413,-141.424"/>
</g>
<!-- Node11 -->
<g id="node11" class="node"><title>Node11</title>
<g id="a_node11"><a xlink:href="binaryconversion_8h.html" target="_top" xlink:title="binaryconversion.h">
<polygon fill="white" stroke="black" points="31,-112.5 31,-131.5 129,-131.5 129,-112.5 31,-112.5"/>
<text text-anchor="middle" x="80" y="-119.5" font-family="Helvetica,sans-Serif" font-size="10.00">binaryconversion.h</text>
</a>
</g>
</g>
<!-- Node8&#45;&gt;Node11 -->
<g id="edge14" class="edge"><title>Node8&#45;&gt;Node11</title>
<path fill="none" stroke="midnightblue" d="M426.871,-168.484C355.743,-160.158 245.028,-146.799 139.252,-132.139"/>
<polygon fill="midnightblue" stroke="midnightblue" points="139.419,-128.629 129.032,-130.716 138.454,-135.562 139.419,-128.629"/>
</g>
<!-- Node8&#45;&gt;Node12 -->
<g id="edge18" class="edge"><title>Node8&#45;&gt;Node12</title>
<path fill="none" stroke="midnightblue" d="M525.085,-168.444C550.545,-159.399 590.894,-145.064 619.459,-134.916"/>
<polygon fill="midnightblue" stroke="midnightblue" points="620.777,-138.162 629.028,-131.516 618.433,-131.566 620.777,-138.162"/>
</g>
<!-- Node8&#45;&gt;Node13 -->
<g id="edge19" class="edge"><title>Node8&#45;&gt;Node13</title>
<path fill="none" stroke="midnightblue" d="M537.609,-168.449C573.288,-160.057 629.325,-146.727 686.783,-132.268"/>
<polygon fill="midnightblue" stroke="midnightblue" points="687.926,-135.589 696.765,-129.748 686.213,-128.802 687.926,-135.589"/>
</g>
<!-- Node14 -->
<g id="node14" class="node"><title>Node14</title>
<polygon fill="white" stroke="#bfbfbf" points="307.5,-112.5 307.5,-131.5 380.5,-131.5 380.5,-112.5 307.5,-112.5"/>
<text text-anchor="middle" x="344" y="-119.5" font-family="Helvetica,sans-Serif" font-size="10.00">initializer_list</text>
</g>
<!-- Node8&#45;&gt;Node14 -->
<g id="edge20" class="edge"><title>Node8&#45;&gt;Node14</title>
<path fill="none" stroke="midnightblue" d="M476.123,-168.444C449.711,-159.359 407.785,-144.939 378.258,-134.783"/>
<polygon fill="midnightblue" stroke="midnightblue" points="379.355,-131.459 368.761,-131.516 377.079,-138.079 379.355,-131.459"/>
</g>
<!-- Node15 -->
<g id="node15" class="node"><title>Node15</title>
<polygon fill="white" stroke="#bfbfbf" points="399,-112.5 399,-131.5 477,-131.5 477,-112.5 399,-112.5"/>
<text text-anchor="middle" x="438" y="-119.5" font-family="Helvetica,sans-Serif" font-size="10.00">bits/codecvt.h</text>
</g>
<!-- Node8&#45;&gt;Node15 -->
<g id="edge21" class="edge"><title>Node8&#45;&gt;Node15</title>
<path fill="none" stroke="midnightblue" d="M490.878,-168.324C481.474,-160.263 467.256,-148.077 455.931,-138.369"/>
<polygon fill="midnightblue" stroke="midnightblue" points="458.177,-135.684 448.306,-131.834 453.621,-140.999 458.177,-135.684"/>
</g>
<!-- Node9&#45;&gt;Node4 -->
<g id="edge11" class="edge"><title>Node9&#45;&gt;Node4</title>
<path fill="none" stroke="midnightblue" d="M494.844,-112.681C427.523,-102.882 315.965,-86.6446 245.577,-76.3993"/>
<polygon fill="midnightblue" stroke="midnightblue" points="245.9,-72.9096 235.5,-74.9326 244.892,-79.8366 245.9,-72.9096"/>
</g>
<!-- Node9&#45;&gt;Node7 -->
<g id="edge13" class="edge"><title>Node9&#45;&gt;Node7</title>
<path fill="none" stroke="midnightblue" d="M508.267,-112.444C452.048,-101.444 355.846,-82.622 306.765,-73.0192"/>
<polygon fill="midnightblue" stroke="midnightblue" points="307.242,-69.5463 296.756,-71.061 305.898,-76.4161 307.242,-69.5463"/>
</g>
<!-- Node9&#45;&gt;Node10 -->
<g id="edge12" class="edge"><title>Node9&#45;&gt;Node10</title>
<path fill="none" stroke="midnightblue" d="M569.834,-112.324C587.716,-103.625 615.475,-90.1202 636.046,-80.113"/>
<polygon fill="midnightblue" stroke="midnightblue" points="637.749,-83.1765 645.21,-75.6545 634.687,-76.8819 637.749,-83.1765"/>
</g>
<!-- Node11&#45;&gt;Node4 -->
<g id="edge16" class="edge"><title>Node11&#45;&gt;Node4</title>
<path fill="none" stroke="midnightblue" d="M96.2274,-112.324C112.351,-103.703 137.3,-90.3643 155.964,-80.3855"/>
<polygon fill="midnightblue" stroke="midnightblue" points="157.644,-83.456 164.813,-75.6545 154.344,-77.283 157.644,-83.456"/>
</g>
<!-- Node11&#45;&gt;Node5 -->
<g id="edge15" class="edge"><title>Node11&#45;&gt;Node5</title>
<path fill="none" stroke="midnightblue" d="M75.7066,-112.083C72.1477,-104.691 66.9775,-93.9533 62.5757,-84.8111"/>
<polygon fill="midnightblue" stroke="midnightblue" points="65.7052,-83.2427 58.2135,-75.7511 59.3982,-86.2795 65.7052,-83.2427"/>
</g>
</g>
</svg>
