<?xml version="1.0" encoding="UTF-8" standalone="no"?>
<!DOCTYPE svg PUBLIC "-//W3C//DTD SVG 1.1//EN"
 "http://www.w3.org/Graphics/SVG/1.1/DTD/svg11.dtd">
<!-- Generated by graphviz version 2.38.0 (20140413.2041)
 -->
<!-- Title: chrono/datetime.h Pages: 1 -->
<svg width="220pt" height="140pt"
 viewBox="0.00 0.00 219.50 140.00" xmlns="http://www.w3.org/2000/svg" xmlns:xlink="http://www.w3.org/1999/xlink">
<g id="graph0" class="graph" transform="scale(1 1) rotate(0) translate(4 136)">
<title>chrono/datetime.h</title>
<polygon fill="white" stroke="none" points="-4,4 -4,-136 215.5,-136 215.5,4 -4,4"/>
<!-- Node1 -->
<g id="node1" class="node"><title>Node1</title>
<polygon fill="#bfbfbf" stroke="black" points="61,-112.5 61,-131.5 156,-131.5 156,-112.5 61,-112.5"/>
<text text-anchor="middle" x="108.5" y="-119.5" font-family="Helvetica,sans-Serif" font-size="10.00">chrono/datetime.h</text>
</g>
<!-- Node2 -->
<g id="node2" class="node"><title>Node2</title>
<g id="a_node2"><a xlink:href="datetime_8cpp.html" target="_top" xlink:title="chrono/datetime.cpp">
<polygon fill="white" stroke="black" points="0,-56.5 0,-75.5 105,-75.5 105,-56.5 0,-56.5"/>
<text text-anchor="middle" x="52.5" y="-63.5" font-family="Helvetica,sans-Serif" font-size="10.00">chrono/datetime.cpp</text>
</a>
</g>
</g>
<!-- Node1&#45;&gt;Node2 -->
<g id="edge1" class="edge"><title>Node1&#45;&gt;Node2</title>
<path fill="none" stroke="midnightblue" d="M92.1701,-105.253C82.235,-95.6731 69.9125,-83.7906 61.6611,-75.8339"/>
<polygon fill="midnightblue" stroke="midnightblue" points="89.8747,-107.902 99.5026,-112.324 94.7336,-102.863 89.8747,-107.902"/>
</g>
<!-- Node3 -->
<g id="node3" class="node"><title>Node3</title>
<g id="a_node3"><a xlink:href="period_8h.html" target="_top" xlink:title="chrono/period.h">
<polygon fill="white" stroke="black" points="123,-56.5 123,-75.5 206,-75.5 206,-56.5 123,-56.5"/>
<text text-anchor="middle" x="164.5" y="-63.5" font-family="Helvetica,sans-Serif" font-size="10.00">chrono/period.h</text>
</a>
</g>
</g>
<!-- Node1&#45;&gt;Node3 -->
<g id="edge2" class="edge"><title>Node1&#45;&gt;Node3</title>
<path fill="none" stroke="midnightblue" d="M124.83,-105.253C134.765,-95.6731 147.088,-83.7906 155.339,-75.8339"/>
<polygon fill="midnightblue" stroke="midnightblue" points="122.266,-102.863 117.497,-112.324 127.125,-107.902 122.266,-102.863"/>
</g>
<!-- Node4 -->
<g id="node4" class="node"><title>Node4</title>
<g id="a_node4"><a xlink:href="period_8cpp.html" target="_top" xlink:title="chrono/period.cpp">
<polygon fill="white" stroke="black" points="117.5,-0.5 117.5,-19.5 211.5,-19.5 211.5,-0.5 117.5,-0.5"/>
<text text-anchor="middle" x="164.5" y="-7.5" font-family="Helvetica,sans-Serif" font-size="10.00">chrono/period.cpp</text>
</a>
</g>
</g>
<!-- Node3&#45;&gt;Node4 -->
<g id="edge3" class="edge"><title>Node3&#45;&gt;Node4</title>
<path fill="none" stroke="midnightblue" d="M164.5,-45.8045C164.5,-36.9102 164.5,-26.7798 164.5,-19.7511"/>
<polygon fill="midnightblue" stroke="midnightblue" points="161,-46.083 164.5,-56.083 168,-46.083 161,-46.083"/>
</g>
</g>
</svg>
