<?xml version="1.0" encoding="UTF-8" standalone="no"?>
<!DOCTYPE svg PUBLIC "-//W3C//DTD SVG 1.1//EN"
 "http://www.w3.org/Graphics/SVG/1.1/DTD/svg11.dtd">
<!-- Generated by graphviz version 2.38.0 (20140413.2041)
 -->
<!-- Title: chrono/datetime.h Pages: 1 -->
<svg width="303pt" height="196pt"
 viewBox="0.00 0.00 302.50 196.00" xmlns="http://www.w3.org/2000/svg" xmlns:xlink="http://www.w3.org/1999/xlink">
<g id="graph0" class="graph" transform="scale(1 1) rotate(0) translate(4 192)">
<title>chrono/datetime.h</title>
<polygon fill="white" stroke="none" points="-4,4 -4,-192 298.5,-192 298.5,4 -4,4"/>
<!-- Node1 -->
<g id="node1" class="node"><title>Node1</title>
<polygon fill="#bfbfbf" stroke="black" points="133.5,-168.5 133.5,-187.5 228.5,-187.5 228.5,-168.5 133.5,-168.5"/>
<text text-anchor="middle" x="181" y="-175.5" font-family="Helvetica,sans-Serif" font-size="10.00">chrono/datetime.h</text>
</g>
<!-- Node2 -->
<g id="node2" class="node"><title>Node2</title>
<g id="a_node2"><a xlink:href="timespan_8h.html" target="_top" xlink:title="timespan.h">
<polygon fill="white" stroke="black" points="148.5,-112.5 148.5,-131.5 213.5,-131.5 213.5,-112.5 148.5,-112.5"/>
<text text-anchor="middle" x="181" y="-119.5" font-family="Helvetica,sans-Serif" font-size="10.00">timespan.h</text>
</a>
</g>
</g>
<!-- Node1&#45;&gt;Node2 -->
<g id="edge1" class="edge"><title>Node1&#45;&gt;Node2</title>
<path fill="none" stroke="midnightblue" d="M181,-168.083C181,-161.006 181,-150.861 181,-141.986"/>
<polygon fill="midnightblue" stroke="midnightblue" points="184.5,-141.751 181,-131.751 177.5,-141.751 184.5,-141.751"/>
</g>
<!-- Node4 -->
<g id="node4" class="node"><title>Node4</title>
<g id="a_node4"><a xlink:href="types_8h.html" target="_top" xlink:title="../conversion/types.h">
<polygon fill="white" stroke="black" points="0,-56.5 0,-75.5 108,-75.5 108,-56.5 0,-56.5"/>
<text text-anchor="middle" x="54" y="-63.5" font-family="Helvetica,sans-Serif" font-size="10.00">../conversion/types.h</text>
</a>
</g>
</g>
<!-- Node1&#45;&gt;Node4 -->
<g id="edge6" class="edge"><title>Node1&#45;&gt;Node4</title>
<path fill="none" stroke="midnightblue" d="M171.035,-168.368C149.612,-149.814 98.9268,-105.913 71.8234,-82.4376"/>
<polygon fill="midnightblue" stroke="midnightblue" points="73.7695,-79.4929 63.9192,-75.5914 69.1866,-84.7841 73.7695,-79.4929"/>
</g>
<!-- Node6 -->
<g id="node6" class="node"><title>Node6</title>
<polygon fill="white" stroke="#bfbfbf" points="253.5,-56.5 253.5,-75.5 294.5,-75.5 294.5,-56.5 253.5,-56.5"/>
<text text-anchor="middle" x="274" y="-63.5" font-family="Helvetica,sans-Serif" font-size="10.00">string</text>
</g>
<!-- Node1&#45;&gt;Node6 -->
<g id="edge7" class="edge"><title>Node1&#45;&gt;Node6</title>
<path fill="none" stroke="midnightblue" d="M189.34,-168.187C197.748,-159.222 211.018,-144.859 222,-132 235.726,-115.928 250.74,-97.0056 261.091,-83.7348"/>
<polygon fill="midnightblue" stroke="midnightblue" points="264.073,-85.6008 267.439,-75.5547 258.543,-81.3093 264.073,-85.6008"/>
</g>
<!-- Node3 -->
<g id="node3" class="node"><title>Node3</title>
<g id="a_node3"><a xlink:href="global_8h.html" target="_top" xlink:title="../application/global.h">
<polygon fill="white" stroke="black" points="126.5,-56.5 126.5,-75.5 235.5,-75.5 235.5,-56.5 126.5,-56.5"/>
<text text-anchor="middle" x="181" y="-63.5" font-family="Helvetica,sans-Serif" font-size="10.00">../application/global.h</text>
</a>
</g>
</g>
<!-- Node2&#45;&gt;Node3 -->
<g id="edge2" class="edge"><title>Node2&#45;&gt;Node3</title>
<path fill="none" stroke="midnightblue" d="M181,-112.083C181,-105.006 181,-94.8611 181,-85.9865"/>
<polygon fill="midnightblue" stroke="midnightblue" points="184.5,-85.751 181,-75.7511 177.5,-85.7511 184.5,-85.751"/>
</g>
<!-- Node2&#45;&gt;Node4 -->
<g id="edge3" class="edge"><title>Node2&#45;&gt;Node4</title>
<path fill="none" stroke="midnightblue" d="M160.876,-112.444C139.976,-103.557 107.065,-89.5632 83.2839,-79.4514"/>
<polygon fill="midnightblue" stroke="midnightblue" points="84.6016,-76.2085 74.0294,-75.5164 81.8625,-82.6504 84.6016,-76.2085"/>
</g>
<!-- Node2&#45;&gt;Node6 -->
<g id="edge5" class="edge"><title>Node2&#45;&gt;Node6</title>
<path fill="none" stroke="midnightblue" d="M195.942,-112.324C210.585,-103.822 233.134,-90.7288 250.238,-80.7975"/>
<polygon fill="midnightblue" stroke="midnightblue" points="252.205,-83.7027 259.095,-75.6545 248.69,-77.6491 252.205,-83.7027"/>
</g>
<!-- Node5 -->
<g id="node5" class="node"><title>Node5</title>
<polygon fill="white" stroke="#bfbfbf" points="31,-0.5 31,-19.5 77,-19.5 77,-0.5 31,-0.5"/>
<text text-anchor="middle" x="54" y="-7.5" font-family="Helvetica,sans-Serif" font-size="10.00">cstdint</text>
</g>
<!-- Node4&#45;&gt;Node5 -->
<g id="edge4" class="edge"><title>Node4&#45;&gt;Node5</title>
<path fill="none" stroke="midnightblue" d="M54,-56.083C54,-49.0059 54,-38.8611 54,-29.9865"/>
<polygon fill="midnightblue" stroke="midnightblue" points="57.5001,-29.751 54,-19.7511 50.5001,-29.7511 57.5001,-29.751"/>
</g>
</g>
</svg>
