<?xml version="1.0" encoding="UTF-8" standalone="no"?>
<!DOCTYPE svg PUBLIC "-//W3C//DTD SVG 1.1//EN"
 "http://www.w3.org/Graphics/SVG/1.1/DTD/svg11.dtd">
<!-- Generated by graphviz version 2.38.0 (20140413.2041)
 -->
<!-- Title: application/global.h Pages: 1 -->
<svg width="1662pt" height="252pt"
 viewBox="0.00 0.00 1662.00 252.00" xmlns="http://www.w3.org/2000/svg" xmlns:xlink="http://www.w3.org/1999/xlink">
<g id="graph0" class="graph" transform="scale(1 1) rotate(0) translate(4 248)">
<title>application/global.h</title>
<polygon fill="white" stroke="none" points="-4,4 -4,-248 1658,-248 1658,4 -4,4"/>
<!-- Node1 -->
<g id="node1" class="node"><title>Node1</title>
<polygon fill="#bfbfbf" stroke="black" points="1161,-224.5 1161,-243.5 1261,-243.5 1261,-224.5 1161,-224.5"/>
<text text-anchor="middle" x="1211" y="-231.5" font-family="Helvetica,sans-Serif" font-size="10.00">application/global.h</text>
</g>
<!-- Node2 -->
<g id="node2" class="node"><title>Node2</title>
<g id="a_node2"><a xlink:href="argumentparser_8h.html" target="_top" xlink:title="application/argumentparser.h">
<polygon fill="white" stroke="black" points="0,-168.5 0,-187.5 142,-187.5 142,-168.5 0,-168.5"/>
<text text-anchor="middle" x="71" y="-175.5" font-family="Helvetica,sans-Serif" font-size="10.00">application/argumentparser.h</text>
</a>
</g>
</g>
<!-- Node1&#45;&gt;Node2 -->
<g id="edge1" class="edge"><title>Node1&#45;&gt;Node2</title>
<path fill="none" stroke="midnightblue" d="M1150.75,-231.911C988.841,-228.665 530.839,-217.393 151,-188 148.074,-187.774 145.089,-187.524 142.076,-187.256"/>
<polygon fill="midnightblue" stroke="midnightblue" points="1150.92,-235.414 1160.99,-232.113 1151.06,-228.416 1150.92,-235.414"/>
</g>
<!-- Node4 -->
<g id="node4" class="node"><title>Node4</title>
<g id="a_node4"><a xlink:href="failure_8h.html" target="_top" xlink:title="application/failure.h">
<polygon fill="white" stroke="black" points="160.5,-168.5 160.5,-187.5 261.5,-187.5 261.5,-168.5 160.5,-168.5"/>
<text text-anchor="middle" x="211" y="-175.5" font-family="Helvetica,sans-Serif" font-size="10.00">application/failure.h</text>
</a>
</g>
</g>
<!-- Node1&#45;&gt;Node4 -->
<g id="edge3" class="edge"><title>Node1&#45;&gt;Node4</title>
<path fill="none" stroke="midnightblue" d="M1150.69,-231.966C1001.85,-229.01 605.278,-218.658 276,-188 271.349,-187.567 266.521,-187.042 261.691,-186.465"/>
<polygon fill="midnightblue" stroke="midnightblue" points="1150.9,-235.471 1160.97,-232.167 1151.04,-228.473 1150.9,-235.471"/>
</g>
<!-- Node6 -->
<g id="node6" class="node"><title>Node6</title>
<g id="a_node6"><a xlink:href="conversionexception_8h.html" target="_top" xlink:title="conversion/conversionexception.h">
<polygon fill="white" stroke="black" points="775,-168.5 775,-187.5 939,-187.5 939,-168.5 775,-168.5"/>
<text text-anchor="middle" x="857" y="-175.5" font-family="Helvetica,sans-Serif" font-size="10.00">conversion/conversionexception.h</text>
</a>
</g>
</g>
<!-- Node1&#45;&gt;Node6 -->
<g id="edge6" class="edge"><title>Node1&#45;&gt;Node6</title>
<path fill="none" stroke="midnightblue" d="M1150.73,-223.806C1084.16,-213.651 977.827,-197.431 913.011,-187.544"/>
<polygon fill="midnightblue" stroke="midnightblue" points="1150.24,-227.272 1160.66,-225.32 1151.3,-220.352 1150.24,-227.272"/>
</g>
<!-- Node15 -->
<g id="node15" class="node"><title>Node15</title>
<g id="a_node15"><a xlink:href="binaryconversion_8h.html" target="_top" xlink:title="conversion/binaryconversion.h">
<polygon fill="white" stroke="black" points="1015.5,-168.5 1015.5,-187.5 1164.5,-187.5 1164.5,-168.5 1015.5,-168.5"/>
<text text-anchor="middle" x="1090" y="-175.5" font-family="Helvetica,sans-Serif" font-size="10.00">conversion/binaryconversion.h</text>
</a>
</g>
</g>
<!-- Node1&#45;&gt;Node15 -->
<g id="edge16" class="edge"><title>Node1&#45;&gt;Node15</title>
<path fill="none" stroke="midnightblue" d="M1182.69,-220.368C1160.03,-210.255 1128.87,-196.349 1109.08,-187.516"/>
<polygon fill="midnightblue" stroke="midnightblue" points="1181.27,-223.564 1191.83,-224.444 1184.12,-217.172 1181.27,-223.564"/>
</g>
<!-- Node16 -->
<g id="node16" class="node"><title>Node16</title>
<g id="a_node16"><a xlink:href="binaryreader_8h.html" target="_top" xlink:title="io/binaryreader.h">
<polygon fill="white" stroke="black" points="1185.5,-112.5 1185.5,-131.5 1274.5,-131.5 1274.5,-112.5 1185.5,-112.5"/>
<text text-anchor="middle" x="1230" y="-119.5" font-family="Helvetica,sans-Serif" font-size="10.00">io/binaryreader.h</text>
</a>
</g>
</g>
<!-- Node1&#45;&gt;Node16 -->
<g id="edge35" class="edge"><title>Node1&#45;&gt;Node16</title>
<path fill="none" stroke="midnightblue" d="M1214.22,-214.348C1218.38,-190.254 1225.46,-149.308 1228.52,-131.591"/>
<polygon fill="midnightblue" stroke="midnightblue" points="1210.74,-213.919 1212.49,-224.368 1217.64,-215.11 1210.74,-213.919"/>
</g>
<!-- Node17 -->
<g id="node17" class="node"><title>Node17</title>
<g id="a_node17"><a xlink:href="path_8h.html" target="_top" xlink:title="io/path.h">
<polygon fill="white" stroke="black" points="1235,-56.5 1235,-75.5 1289,-75.5 1289,-56.5 1235,-56.5"/>
<text text-anchor="middle" x="1262" y="-63.5" font-family="Helvetica,sans-Serif" font-size="10.00">io/path.h</text>
</a>
</g>
</g>
<!-- Node1&#45;&gt;Node17 -->
<g id="edge38" class="edge"><title>Node1&#45;&gt;Node17</title>
<path fill="none" stroke="midnightblue" d="M1227.28,-217.078C1244.94,-198.554 1272.08,-166.124 1283,-132 1289.43,-111.895 1276.77,-88.3236 1268.45,-75.8263"/>
<polygon fill="midnightblue" stroke="midnightblue" points="1224.65,-214.76 1220.14,-224.349 1229.65,-219.664 1224.65,-214.76"/>
</g>
<!-- Node18 -->
<g id="node18" class="node"><title>Node18</title>
<g id="a_node18"><a xlink:href="path_8cpp.html" target="_top" xlink:title="io/path.cpp">
<polygon fill="white" stroke="black" points="1308.5,-0.5 1308.5,-19.5 1373.5,-19.5 1373.5,-0.5 1308.5,-0.5"/>
<text text-anchor="middle" x="1341" y="-7.5" font-family="Helvetica,sans-Serif" font-size="10.00">io/path.cpp</text>
</a>
</g>
</g>
<!-- Node1&#45;&gt;Node18 -->
<g id="edge39" class="edge"><title>Node1&#45;&gt;Node18</title>
<path fill="none" stroke="midnightblue" d="M1236.42,-219.324C1249.05,-211.506 1263.76,-200.723 1274,-188 1317.88,-133.481 1335.12,-47.1522 1339.68,-19.6893"/>
<polygon fill="midnightblue" stroke="midnightblue" points="1234.51,-216.383 1227.68,-224.479 1238.07,-222.412 1234.51,-216.383"/>
</g>
<!-- Node19 -->
<g id="node19" class="node"><title>Node19</title>
<g id="a_node19"><a xlink:href="binarywriter_8h.html" target="_top" xlink:title="io/binarywriter.h">
<polygon fill="white" stroke="black" points="1081,-112.5 1081,-131.5 1167,-131.5 1167,-112.5 1081,-112.5"/>
<text text-anchor="middle" x="1124" y="-119.5" font-family="Helvetica,sans-Serif" font-size="10.00">io/binarywriter.h</text>
</a>
</g>
</g>
<!-- Node1&#45;&gt;Node19 -->
<g id="edge36" class="edge"><title>Node1&#45;&gt;Node19</title>
<path fill="none" stroke="midnightblue" d="M1202.48,-215.268C1195.51,-201.658 1184.9,-182.759 1173,-168 1161.69,-153.972 1145.97,-140.331 1135.41,-131.814"/>
<polygon fill="midnightblue" stroke="midnightblue" points="1199.47,-217.087 1207.05,-224.489 1205.74,-213.976 1199.47,-217.087"/>
</g>
<!-- Node20 -->
<g id="node20" class="node"><title>Node20</title>
<g id="a_node20"><a xlink:href="timespan_8h.html" target="_top" xlink:title="chrono/timespan.h">
<polygon fill="white" stroke="black" points="393.5,-168.5 393.5,-187.5 490.5,-187.5 490.5,-168.5 393.5,-168.5"/>
<text text-anchor="middle" x="442" y="-175.5" font-family="Helvetica,sans-Serif" font-size="10.00">chrono/timespan.h</text>
</a>
</g>
</g>
<!-- Node1&#45;&gt;Node20 -->
<g id="edge26" class="edge"><title>Node1&#45;&gt;Node20</title>
<path fill="none" stroke="midnightblue" d="M1150.61,-228.759C1002.85,-218.384 625.429,-191.881 490.704,-182.42"/>
<polygon fill="midnightblue" stroke="midnightblue" points="1150.62,-232.269 1160.84,-229.478 1151.11,-225.286 1150.62,-232.269"/>
</g>
<!-- Node22 -->
<g id="node22" class="node"><title>Node22</title>
<g id="a_node22"><a xlink:href="period_8h.html" target="_top" xlink:title="chrono/period.h">
<polygon fill="white" stroke="black" points="256.5,-56.5 256.5,-75.5 339.5,-75.5 339.5,-56.5 256.5,-56.5"/>
<text text-anchor="middle" x="298" y="-63.5" font-family="Helvetica,sans-Serif" font-size="10.00">chrono/period.h</text>
</a>
</g>
</g>
<!-- Node1&#45;&gt;Node22 -->
<g id="edge32" class="edge"><title>Node1&#45;&gt;Node22</title>
<path fill="none" stroke="midnightblue" d="M1150.67,-231.731C972.303,-227.698 455.404,-213.892 384,-188 344.892,-173.819 330.692,-167.497 309,-132 298.138,-114.226 297.161,-88.8712 297.503,-75.6982"/>
<polygon fill="midnightblue" stroke="midnightblue" points="1150.85,-235.236 1160.92,-231.96 1151,-228.237 1150.85,-235.236"/>
</g>
<!-- Node24 -->
<g id="node24" class="node"><title>Node24</title>
<g id="a_node24"><a xlink:href="widen_8h.html" target="_top" xlink:title="conversion/widen.h">
<polygon fill="white" stroke="black" points="1369.5,-56.5 1369.5,-75.5 1470.5,-75.5 1470.5,-56.5 1369.5,-56.5"/>
<text text-anchor="middle" x="1420" y="-63.5" font-family="Helvetica,sans-Serif" font-size="10.00">conversion/widen.h</text>
</a>
</g>
</g>
<!-- Node1&#45;&gt;Node24 -->
<g id="edge33" class="edge"><title>Node1&#45;&gt;Node24</title>
<path fill="none" stroke="midnightblue" d="M1271.28,-224.886C1299.2,-218.614 1331.35,-207.535 1355,-188 1392.69,-156.87 1411.7,-98.0051 1417.78,-75.7869"/>
<polygon fill="midnightblue" stroke="midnightblue" points="1270.28,-221.518 1261.2,-226.986 1271.71,-228.371 1270.28,-221.518"/>
</g>
<!-- Node25 -->
<g id="node25" class="node"><title>Node25</title>
<g id="a_node25"><a xlink:href="copy_8h.html" target="_top" xlink:title="io/copy.h">
<polygon fill="white" stroke="black" points="1407,-168.5 1407,-187.5 1463,-187.5 1463,-168.5 1407,-168.5"/>
<text text-anchor="middle" x="1435" y="-175.5" font-family="Helvetica,sans-Serif" font-size="10.00">io/copy.h</text>
</a>
</g>
</g>
<!-- Node1&#45;&gt;Node25 -->
<g id="edge37" class="edge"><title>Node1&#45;&gt;Node25</title>
<path fill="none" stroke="midnightblue" d="M1256.29,-222.081C1301.3,-211.231 1368.92,-194.93 1406.77,-185.807"/>
<polygon fill="midnightblue" stroke="midnightblue" points="1255.39,-218.697 1246.49,-224.444 1257.04,-225.502 1255.39,-218.697"/>
</g>
<!-- Node26 -->
<g id="node26" class="node"><title>Node26</title>
<g id="a_node26"><a xlink:href="math_8h.html" target="_top" xlink:title="math/math.h">
<polygon fill="white" stroke="black" points="1481.5,-168.5 1481.5,-187.5 1552.5,-187.5 1552.5,-168.5 1481.5,-168.5"/>
<text text-anchor="middle" x="1517" y="-175.5" font-family="Helvetica,sans-Serif" font-size="10.00">math/math.h</text>
</a>
</g>
</g>
<!-- Node1&#45;&gt;Node26 -->
<g id="edge40" class="edge"><title>Node1&#45;&gt;Node26</title>
<path fill="none" stroke="midnightblue" d="M1271.01,-223.121C1323.96,-214.292 1403.2,-200.808 1472,-188 1474.98,-187.446 1478.06,-186.858 1481.16,-186.258"/>
<polygon fill="midnightblue" stroke="midnightblue" points="1270.4,-219.674 1261.11,-224.769 1271.55,-226.579 1270.4,-219.674"/>
</g>
<!-- Node28 -->
<g id="node28" class="node"><title>Node28</title>
<g id="a_node28"><a xlink:href="misc_8h.html" target="_top" xlink:title="misc/misc.h">
<polygon fill="white" stroke="black" points="1576,-168.5 1576,-187.5 1646,-187.5 1646,-168.5 1576,-168.5"/>
<text text-anchor="middle" x="1611" y="-175.5" font-family="Helvetica,sans-Serif" font-size="10.00">misc/misc.h</text>
</a>
</g>
</g>
<!-- Node1&#45;&gt;Node28 -->
<g id="edge42" class="edge"><title>Node1&#45;&gt;Node28</title>
<path fill="none" stroke="midnightblue" d="M1271.19,-226.193C1341.03,-218.079 1459.57,-203.638 1561,-188 1565.79,-187.261 1570.84,-186.424 1575.8,-185.565"/>
<polygon fill="midnightblue" stroke="midnightblue" points="1270.78,-222.717 1261.25,-227.343 1271.58,-229.67 1270.78,-222.717"/>
</g>
<!-- Node3 -->
<g id="node3" class="node"><title>Node3</title>
<g id="a_node3"><a xlink:href="argumentparser_8cpp.html" target="_top" xlink:title="application/argumentparser.cpp">
<polygon fill="white" stroke="black" points="46,-56.5 46,-75.5 198,-75.5 198,-56.5 46,-56.5"/>
<text text-anchor="middle" x="122" y="-63.5" font-family="Helvetica,sans-Serif" font-size="10.00">application/argumentparser.cpp</text>
</a>
</g>
</g>
<!-- Node2&#45;&gt;Node3 -->
<g id="edge2" class="edge"><title>Node2&#45;&gt;Node3</title>
<path fill="none" stroke="midnightblue" d="M79.3463,-158.998C90.4742,-134.997 109.728,-93.4683 118.017,-75.5914"/>
<polygon fill="midnightblue" stroke="midnightblue" points="76.0329,-157.824 75.0019,-168.368 82.3835,-160.768 76.0329,-157.824"/>
</g>
<!-- Node4&#45;&gt;Node3 -->
<g id="edge4" class="edge"><title>Node4&#45;&gt;Node3</title>
<path fill="none" stroke="midnightblue" d="M180.739,-163.736C166.827,-156.248 151.191,-145.633 141,-132 128.188,-114.862 123.99,-89.2388 122.633,-75.8576"/>
<polygon fill="midnightblue" stroke="midnightblue" points="179.502,-167.033 190.006,-168.419 182.659,-160.785 179.502,-167.033"/>
</g>
<!-- Node5 -->
<g id="node5" class="node"><title>Node5</title>
<g id="a_node5"><a xlink:href="failure_8cpp.html" target="_top" xlink:title="application/failure.cpp">
<polygon fill="white" stroke="black" points="150.5,-112.5 150.5,-131.5 261.5,-131.5 261.5,-112.5 150.5,-112.5"/>
<text text-anchor="middle" x="206" y="-119.5" font-family="Helvetica,sans-Serif" font-size="10.00">application/failure.cpp</text>
</a>
</g>
</g>
<!-- Node4&#45;&gt;Node5 -->
<g id="edge5" class="edge"><title>Node4&#45;&gt;Node5</title>
<path fill="none" stroke="midnightblue" d="M209.25,-158.101C208.42,-149.136 207.468,-138.858 206.81,-131.751"/>
<polygon fill="midnightblue" stroke="midnightblue" points="205.767,-158.448 210.174,-168.083 212.737,-157.803 205.767,-158.448"/>
</g>
<!-- Node7 -->
<g id="node7" class="node"><title>Node7</title>
<g id="a_node7"><a xlink:href="stringconversion_8h.html" target="_top" xlink:title="conversion/stringconversion.h">
<polygon fill="white" stroke="black" points="664,-112.5 664,-131.5 810,-131.5 810,-112.5 664,-112.5"/>
<text text-anchor="middle" x="737" y="-119.5" font-family="Helvetica,sans-Serif" font-size="10.00">conversion/stringconversion.h</text>
</a>
</g>
</g>
<!-- Node6&#45;&gt;Node7 -->
<g id="edge7" class="edge"><title>Node6&#45;&gt;Node7</title>
<path fill="none" stroke="midnightblue" d="M828.627,-164.232C806.18,-154.131 775.465,-140.309 755.925,-131.516"/>
<polygon fill="midnightblue" stroke="midnightblue" points="827.43,-167.532 837.986,-168.444 830.303,-161.148 827.43,-167.532"/>
</g>
<!-- Node11 -->
<g id="node11" class="node"><title>Node11</title>
<g id="a_node11"><a xlink:href="binaryconversion_8cpp.html" target="_top" xlink:title="conversion/binaryconversion.cpp">
<polygon fill="white" stroke="black" points="903.5,-112.5 903.5,-131.5 1062.5,-131.5 1062.5,-112.5 903.5,-112.5"/>
<text text-anchor="middle" x="983" y="-119.5" font-family="Helvetica,sans-Serif" font-size="10.00">conversion/binaryconversion.cpp</text>
</a>
</g>
</g>
<!-- Node6&#45;&gt;Node11 -->
<g id="edge12" class="edge"><title>Node6&#45;&gt;Node11</title>
<path fill="none" stroke="midnightblue" d="M886.16,-164.503C909.781,-154.38 942.428,-140.388 963.128,-131.516"/>
<polygon fill="midnightblue" stroke="midnightblue" points="884.778,-161.287 876.965,-168.444 887.535,-167.721 884.778,-161.287"/>
</g>
<!-- Node12 -->
<g id="node12" class="node"><title>Node12</title>
<g id="a_node12"><a xlink:href="conversionexception_8cpp.html" target="_top" xlink:title="conversion/conversionexception.cpp">
<polygon fill="white" stroke="black" points="470.5,-112.5 470.5,-131.5 645.5,-131.5 645.5,-112.5 470.5,-112.5"/>
<text text-anchor="middle" x="558" y="-119.5" font-family="Helvetica,sans-Serif" font-size="10.00">conversion/conversionexception.cpp</text>
</a>
</g>
</g>
<!-- Node6&#45;&gt;Node12 -->
<g id="edge13" class="edge"><title>Node6&#45;&gt;Node12</title>
<path fill="none" stroke="midnightblue" d="M799.77,-166.664C743.265,-156.459 657.88,-141.039 605.156,-131.516"/>
<polygon fill="midnightblue" stroke="midnightblue" points="799.16,-170.11 809.623,-168.444 800.404,-163.222 799.16,-170.11"/>
</g>
<!-- Node13 -->
<g id="node13" class="node"><title>Node13</title>
<g id="a_node13"><a xlink:href="binaryreader_8cpp.html" target="_top" xlink:title="io/binaryreader.cpp">
<polygon fill="white" stroke="black" points="1069.5,-56.5 1069.5,-75.5 1168.5,-75.5 1168.5,-56.5 1069.5,-56.5"/>
<text text-anchor="middle" x="1119" y="-63.5" font-family="Helvetica,sans-Serif" font-size="10.00">io/binaryreader.cpp</text>
</a>
</g>
</g>
<!-- Node6&#45;&gt;Node13 -->
<g id="edge14" class="edge"><title>Node6&#45;&gt;Node13</title>
<path fill="none" stroke="midnightblue" d="M862.692,-158.563C868.264,-143.669 878.243,-123.377 894,-112 921.493,-92.1494 1011.93,-78.7992 1069.43,-72.0828"/>
<polygon fill="midnightblue" stroke="midnightblue" points="859.304,-157.655 859.394,-168.249 865.93,-159.911 859.304,-157.655"/>
</g>
<!-- Node14 -->
<g id="node14" class="node"><title>Node14</title>
<g id="a_node14"><a xlink:href="binarywriter_8cpp.html" target="_top" xlink:title="io/binarywriter.cpp">
<polygon fill="white" stroke="black" points="859,-56.5 859,-75.5 955,-75.5 955,-56.5 859,-56.5"/>
<text text-anchor="middle" x="907" y="-63.5" font-family="Helvetica,sans-Serif" font-size="10.00">io/binarywriter.cpp</text>
</a>
</g>
</g>
<!-- Node6&#45;&gt;Node14 -->
<g id="edge15" class="edge"><title>Node6&#45;&gt;Node14</title>
<path fill="none" stroke="midnightblue" d="M855.079,-158.104C854.497,-144.647 855.349,-126.46 862,-112 869.017,-96.7426 883.566,-83.7391 894.228,-75.6918"/>
<polygon fill="midnightblue" stroke="midnightblue" points="851.59,-158.391 855.81,-168.109 858.572,-157.881 851.59,-158.391"/>
</g>
<!-- Node7&#45;&gt;Node3 -->
<g id="edge8" class="edge"><title>Node7&#45;&gt;Node3</title>
<path fill="none" stroke="midnightblue" d="M653.6,-111.984C484.45,-95.7553 299.581,-80.8227 198.256,-72.8809"/>
<polygon fill="midnightblue" stroke="midnightblue" points="653.4,-115.481 663.689,-112.956 654.071,-108.513 653.4,-115.481"/>
</g>
<!-- Node8 -->
<g id="node8" class="node"><title>Node8</title>
<g id="a_node8"><a xlink:href="datetime_8cpp.html" target="_top" xlink:title="chrono/datetime.cpp">
<polygon fill="white" stroke="black" points="387.5,-56.5 387.5,-75.5 492.5,-75.5 492.5,-56.5 387.5,-56.5"/>
<text text-anchor="middle" x="440" y="-63.5" font-family="Helvetica,sans-Serif" font-size="10.00">chrono/datetime.cpp</text>
</a>
</g>
</g>
<!-- Node7&#45;&gt;Node8 -->
<g id="edge9" class="edge"><title>Node7&#45;&gt;Node8</title>
<path fill="none" stroke="midnightblue" d="M679.804,-110.601C623.674,-100.395 539.104,-85.0189 486.84,-75.5164"/>
<polygon fill="midnightblue" stroke="midnightblue" points="679.475,-114.098 689.939,-112.444 680.727,-107.211 679.475,-114.098"/>
</g>
<!-- Node9 -->
<g id="node9" class="node"><title>Node9</title>
<g id="a_node9"><a xlink:href="timespan_8cpp.html" target="_top" xlink:title="chrono/timespan.cpp">
<polygon fill="white" stroke="black" points="525.5,-56.5 525.5,-75.5 632.5,-75.5 632.5,-56.5 525.5,-56.5"/>
<text text-anchor="middle" x="579" y="-63.5" font-family="Helvetica,sans-Serif" font-size="10.00">chrono/timespan.cpp</text>
</a>
</g>
</g>
<!-- Node7&#45;&gt;Node9 -->
<g id="edge10" class="edge"><title>Node7&#45;&gt;Node9</title>
<path fill="none" stroke="midnightblue" d="M702.392,-109.172C672.641,-99.0039 630.453,-84.5852 603.918,-75.5164"/>
<polygon fill="midnightblue" stroke="midnightblue" points="701.37,-112.521 711.964,-112.444 703.634,-105.898 701.37,-112.521"/>
</g>
<!-- Node10 -->
<g id="node10" class="node"><title>Node10</title>
<g id="a_node10"><a xlink:href="stringconversion_8cpp.html" target="_top" xlink:title="conversion/stringconversion.cpp">
<polygon fill="white" stroke="black" points="658.5,-56.5 658.5,-75.5 815.5,-75.5 815.5,-56.5 658.5,-56.5"/>
<text text-anchor="middle" x="737" y="-63.5" font-family="Helvetica,sans-Serif" font-size="10.00">conversion/stringconversion.cpp</text>
</a>
</g>
</g>
<!-- Node7&#45;&gt;Node10 -->
<g id="edge11" class="edge"><title>Node7&#45;&gt;Node10</title>
<path fill="none" stroke="midnightblue" d="M737,-101.805C737,-92.9102 737,-82.7798 737,-75.7511"/>
<polygon fill="midnightblue" stroke="midnightblue" points="733.5,-102.083 737,-112.083 740.5,-102.083 733.5,-102.083"/>
</g>
<!-- Node15&#45;&gt;Node7 -->
<g id="edge17" class="edge"><title>Node15&#45;&gt;Node7</title>
<path fill="none" stroke="midnightblue" d="M1024.08,-166.917C957.396,-156.715 855.434,-141.117 792.672,-131.516"/>
<polygon fill="midnightblue" stroke="midnightblue" points="1023.65,-170.391 1034.07,-168.444 1024.71,-163.472 1023.65,-170.391"/>
</g>
<!-- Node15&#45;&gt;Node11 -->
<g id="edge18" class="edge"><title>Node15&#45;&gt;Node11</title>
<path fill="none" stroke="midnightblue" d="M1063.7,-163.726C1043.89,-153.727 1017.29,-140.307 1000.15,-131.655"/>
<polygon fill="midnightblue" stroke="midnightblue" points="1062.3,-166.943 1072.81,-168.324 1065.46,-160.694 1062.3,-166.943"/>
</g>
<!-- Node15&#45;&gt;Node16 -->
<g id="edge19" class="edge"><title>Node15&#45;&gt;Node16</title>
<path fill="none" stroke="midnightblue" d="M1121.7,-164.772C1148,-154.629 1184.72,-140.467 1207.92,-131.516"/>
<polygon fill="midnightblue" stroke="midnightblue" points="1120.25,-161.579 1112.18,-168.444 1122.77,-168.11 1120.25,-161.579"/>
</g>
<!-- Node15&#45;&gt;Node19 -->
<g id="edge23" class="edge"><title>Node15&#45;&gt;Node19</title>
<path fill="none" stroke="midnightblue" d="M1100.98,-159.566C1106.83,-150.275 1113.77,-139.248 1118.49,-131.751"/>
<polygon fill="midnightblue" stroke="midnightblue" points="1097.98,-157.756 1095.61,-168.083 1103.9,-161.486 1097.98,-157.756"/>
</g>
<!-- Node16&#45;&gt;Node13 -->
<g id="edge20" class="edge"><title>Node16&#45;&gt;Node13</title>
<path fill="none" stroke="midnightblue" d="M1202.99,-107.862C1182.41,-97.8492 1154.66,-84.3458 1136.79,-75.6545"/>
<polygon fill="midnightblue" stroke="midnightblue" points="1201.64,-111.097 1212.17,-112.324 1204.7,-104.802 1201.64,-111.097"/>
</g>
<!-- Node16&#45;&gt;Node17 -->
<g id="edge21" class="edge"><title>Node16&#45;&gt;Node17</title>
<path fill="none" stroke="midnightblue" d="M1240.5,-103.275C1245.97,-94.0454 1252.42,-83.1703 1256.81,-75.7511"/>
<polygon fill="midnightblue" stroke="midnightblue" points="1237.37,-101.696 1235.28,-112.083 1243.39,-105.264 1237.37,-101.696"/>
</g>
<!-- Node17&#45;&gt;Node18 -->
<g id="edge22" class="edge"><title>Node17&#45;&gt;Node18</title>
<path fill="none" stroke="midnightblue" d="M1283.03,-50.6221C1297.47,-40.7574 1316.14,-27.9919 1328.34,-19.6545"/>
<polygon fill="midnightblue" stroke="midnightblue" points="1280.97,-47.7914 1274.69,-56.324 1284.92,-53.5703 1280.97,-47.7914"/>
</g>
<!-- Node19&#45;&gt;Node14 -->
<g id="edge24" class="edge"><title>Node19&#45;&gt;Node14</title>
<path fill="none" stroke="midnightblue" d="M1079.89,-110.024C1038.9,-99.8232 978.696,-84.8414 941.223,-75.5164"/>
<polygon fill="midnightblue" stroke="midnightblue" points="1079.07,-113.425 1089.62,-112.444 1080.76,-106.632 1079.07,-113.425"/>
</g>
<!-- Node19&#45;&gt;Node17 -->
<g id="edge25" class="edge"><title>Node19&#45;&gt;Node17</title>
<path fill="none" stroke="midnightblue" d="M1155.25,-108.772C1181.17,-98.6287 1217.36,-84.4669 1240.24,-75.5164"/>
<polygon fill="midnightblue" stroke="midnightblue" points="1153.9,-105.54 1145.87,-112.444 1156.45,-112.059 1153.9,-105.54"/>
</g>
<!-- Node20&#45;&gt;Node9 -->
<g id="edge31" class="edge"><title>Node20&#45;&gt;Node9</title>
<path fill="none" stroke="midnightblue" d="M443.09,-158.057C444.865,-143.766 449.422,-124.543 461,-112 478.548,-92.9894 504.99,-81.9434 528.398,-75.5586"/>
<polygon fill="midnightblue" stroke="midnightblue" points="439.584,-157.968 442.181,-168.239 446.556,-158.59 439.584,-157.968"/>
</g>
<!-- Node21 -->
<g id="node21" class="node"><title>Node21</title>
<g id="a_node21"><a xlink:href="datetime_8h.html" target="_top" xlink:title="chrono/datetime.h">
<polygon fill="white" stroke="black" points="318.5,-112.5 318.5,-131.5 413.5,-131.5 413.5,-112.5 318.5,-112.5"/>
<text text-anchor="middle" x="366" y="-119.5" font-family="Helvetica,sans-Serif" font-size="10.00">chrono/datetime.h</text>
</a>
</g>
</g>
<!-- Node20&#45;&gt;Node21 -->
<g id="edge27" class="edge"><title>Node20&#45;&gt;Node21</title>
<path fill="none" stroke="midnightblue" d="M421.424,-162.38C407.688,-152.62 390.075,-140.106 378.433,-131.834"/>
<polygon fill="midnightblue" stroke="midnightblue" points="419.61,-165.385 429.789,-168.324 423.665,-159.679 419.61,-165.385"/>
</g>
<!-- Node21&#45;&gt;Node8 -->
<g id="edge28" class="edge"><title>Node21&#45;&gt;Node8</title>
<path fill="none" stroke="midnightblue" d="M386.034,-106.38C399.409,-96.6204 416.559,-84.1057 427.894,-75.8339"/>
<polygon fill="midnightblue" stroke="midnightblue" points="383.904,-103.602 377.889,-112.324 388.03,-109.257 383.904,-103.602"/>
</g>
<!-- Node21&#45;&gt;Node22 -->
<g id="edge29" class="edge"><title>Node21&#45;&gt;Node22</title>
<path fill="none" stroke="midnightblue" d="M347.238,-106.101C335,-96.3824 319.441,-84.0269 309.124,-75.8339"/>
<polygon fill="midnightblue" stroke="midnightblue" points="345.067,-108.846 355.075,-112.324 349.42,-103.364 345.067,-108.846"/>
</g>
<!-- Node23 -->
<g id="node23" class="node"><title>Node23</title>
<g id="a_node23"><a xlink:href="period_8cpp.html" target="_top" xlink:title="chrono/period.cpp">
<polygon fill="white" stroke="black" points="251,-0.5 251,-19.5 345,-19.5 345,-0.5 251,-0.5"/>
<text text-anchor="middle" x="298" y="-7.5" font-family="Helvetica,sans-Serif" font-size="10.00">chrono/period.cpp</text>
</a>
</g>
</g>
<!-- Node22&#45;&gt;Node23 -->
<g id="edge30" class="edge"><title>Node22&#45;&gt;Node23</title>
<path fill="none" stroke="midnightblue" d="M298,-45.8045C298,-36.9102 298,-26.7798 298,-19.7511"/>
<polygon fill="midnightblue" stroke="midnightblue" points="294.5,-46.083 298,-56.083 301.5,-46.083 294.5,-46.083"/>
</g>
<!-- Node24&#45;&gt;Node18 -->
<g id="edge34" class="edge"><title>Node24&#45;&gt;Node18</title>
<path fill="none" stroke="midnightblue" d="M1398.97,-50.6221C1384.53,-40.7574 1365.86,-27.9919 1353.66,-19.6545"/>
<polygon fill="midnightblue" stroke="midnightblue" points="1397.08,-53.5703 1407.31,-56.324 1401.03,-47.7914 1397.08,-53.5703"/>
</g>
<!-- Node27 -->
<g id="node27" class="node"><title>Node27</title>
<g id="a_node27"><a xlink:href="math_8cpp.html" target="_top" xlink:title="math/math.cpp">
<polygon fill="white" stroke="black" points="1474,-112.5 1474,-131.5 1556,-131.5 1556,-112.5 1474,-112.5"/>
<text text-anchor="middle" x="1515" y="-119.5" font-family="Helvetica,sans-Serif" font-size="10.00">math/math.cpp</text>
</a>
</g>
</g>
<!-- Node26&#45;&gt;Node27 -->
<g id="edge41" class="edge"><title>Node26&#45;&gt;Node27</title>
<path fill="none" stroke="midnightblue" d="M1516.29,-157.805C1515.96,-148.91 1515.58,-138.78 1515.32,-131.751"/>
<polygon fill="midnightblue" stroke="midnightblue" points="1512.8,-158.219 1516.67,-168.083 1519.8,-157.96 1512.8,-158.219"/>
</g>
<!-- Node29 -->
<g id="node29" class="node"><title>Node29</title>
<g id="a_node29"><a xlink:href="misc_8cpp.html" target="_top" xlink:title="misc/misc.cpp">
<polygon fill="white" stroke="black" points="1574,-112.5 1574,-131.5 1654,-131.5 1654,-112.5 1574,-112.5"/>
<text text-anchor="middle" x="1614" y="-119.5" font-family="Helvetica,sans-Serif" font-size="10.00">misc/misc.cpp</text>
</a>
</g>
</g>
<!-- Node28&#45;&gt;Node29 -->
<g id="edge43" class="edge"><title>Node28&#45;&gt;Node29</title>
<path fill="none" stroke="midnightblue" d="M1612.07,-157.805C1612.56,-148.91 1613.12,-138.78 1613.51,-131.751"/>
<polygon fill="midnightblue" stroke="midnightblue" points="1608.56,-157.904 1611.5,-168.083 1615.54,-158.293 1608.56,-157.904"/>
</g>
</g>
</svg>
