<?xml version="1.0" encoding="UTF-8" standalone="no"?>
<!DOCTYPE svg PUBLIC "-//W3C//DTD SVG 1.1//EN"
 "http://www.w3.org/Graphics/SVG/1.1/DTD/svg11.dtd">
<!-- Generated by graphviz version 2.38.0 (20140413.2041)
 -->
<!-- Title: Graphical Class Hierarchy Pages: 1 -->
<svg width="372pt" height="83pt"
 viewBox="0.00 0.00 372.00 83.00" xmlns="http://www.w3.org/2000/svg" xmlns:xlink="http://www.w3.org/1999/xlink">
<g id="graph0" class="graph" transform="scale(1 1) rotate(0) translate(4 79)">
<title>Graphical Class Hierarchy</title>
<polygon fill="white" stroke="none" points="-4,4 -4,-79 368,-79 368,4 -4,4"/>
<!-- Node1 -->
<g id="node1" class="node"><title>Node1</title>
<g id="a_node1"><a xlink:title="STL class. ">
<polygon fill="white" stroke="#bfbfbf" points="0,-28 0,-47 78,-47 78,-28 0,-28"/>
<text text-anchor="middle" x="39" y="-35" font-family="Helvetica,sans-Serif" font-size="10.00">std::exception</text>
</a>
</g>
</g>
<!-- Node2 -->
<g id="node2" class="node"><title>Node2</title>
<g id="a_node2"><a xlink:href="classApplicationUtilities_1_1Failure.html" target="_top" xlink:title="The exception that is thrown by an ArgumentParser when a parsing error occurs. ">
<polygon fill="white" stroke="black" points="114,-44.5 114,-74.5 212,-74.5 212,-44.5 114,-44.5"/>
<text text-anchor="start" x="122" y="-62.5" font-family="Helvetica,sans-Serif" font-size="10.00">ApplicationUtilities</text>
<text text-anchor="middle" x="163" y="-51.5" font-family="Helvetica,sans-Serif" font-size="10.00">::Failure</text>
</a>
</g>
</g>
<!-- Node1&#45;&gt;Node2 -->
<g id="edge1" class="edge"><title>Node1&#45;&gt;Node2</title>
<path fill="none" stroke="midnightblue" d="M88.3434,-46.2177C96.7795,-47.7389 105.553,-49.3211 113.981,-50.8408"/>
<polygon fill="midnightblue" stroke="midnightblue" points="88.7293,-42.7309 78.2668,-44.4006 87.4869,-49.6198 88.7293,-42.7309"/>
</g>
<!-- Node3 -->
<g id="node3" class="node"><title>Node3</title>
<g id="a_node3"><a xlink:title="STL class. ">
<polygon fill="white" stroke="#bfbfbf" points="116.5,-6 116.5,-25 209.5,-25 209.5,-6 116.5,-6"/>
<text text-anchor="middle" x="163" y="-13" font-family="Helvetica,sans-Serif" font-size="10.00">std::runtime_error</text>
</a>
</g>
</g>
<!-- Node1&#45;&gt;Node3 -->
<g id="edge2" class="edge"><title>Node1&#45;&gt;Node3</title>
<path fill="none" stroke="midnightblue" d="M88.3881,-28.7743C97.5431,-27.1234 107.094,-25.401 116.168,-23.7649"/>
<polygon fill="midnightblue" stroke="midnightblue" points="87.4869,-25.3802 78.2668,-30.5994 88.7293,-32.2691 87.4869,-25.3802"/>
</g>
<!-- Node4 -->
<g id="node4" class="node"><title>Node4</title>
<g id="a_node4"><a xlink:href="classConversionUtilities_1_1ConversionException.html" target="_top" xlink:title="The exception that is thrown when an conversion error occurs. ">
<polygon fill="white" stroke="black" points="248,-0.5 248,-30.5 364,-30.5 364,-0.5 248,-0.5"/>
<text text-anchor="start" x="256" y="-18.5" font-family="Helvetica,sans-Serif" font-size="10.00">ConversionUtilities</text>
<text text-anchor="middle" x="306" y="-7.5" font-family="Helvetica,sans-Serif" font-size="10.00">::ConversionException</text>
</a>
</g>
</g>
<!-- Node3&#45;&gt;Node4 -->
<g id="edge3" class="edge"><title>Node3&#45;&gt;Node4</title>
<path fill="none" stroke="midnightblue" d="M219.955,-15.5C229.129,-15.5 238.647,-15.5 247.849,-15.5"/>
<polygon fill="midnightblue" stroke="midnightblue" points="219.779,-12.0001 209.779,-15.5 219.779,-19.0001 219.779,-12.0001"/>
</g>
</g>
</svg>
