<?xml version="1.0" encoding="UTF-8" standalone="no"?>
<!DOCTYPE svg PUBLIC "-//W3C//DTD SVG 1.1//EN"
 "http://www.w3.org/Graphics/SVG/1.1/DTD/svg11.dtd">
<!-- Generated by graphviz version 2.38.0 (20140413.2041)
 -->
<!-- Title: io/path.cpp Pages: 1 -->
<svg width="901pt" height="308pt"
 viewBox="0.00 0.00 901.00 308.00" xmlns="http://www.w3.org/2000/svg" xmlns:xlink="http://www.w3.org/1999/xlink">
<g id="graph0" class="graph" transform="scale(1 1) rotate(0) translate(4 304)">
<title>io/path.cpp</title>
<polygon fill="white" stroke="none" points="-4,4 -4,-304 897,-304 897,4 -4,4"/>
<!-- Node1 -->
<g id="node1" class="node"><title>Node1</title>
<polygon fill="#bfbfbf" stroke="black" points="641,-280.5 641,-299.5 706,-299.5 706,-280.5 641,-280.5"/>
<text text-anchor="middle" x="673.5" y="-287.5" font-family="Helvetica,sans-Serif" font-size="10.00">io/path.cpp</text>
</g>
<!-- Node2 -->
<g id="node2" class="node"><title>Node2</title>
<g id="a_node2"><a xlink:href="path_8h.html" target="_top" xlink:title="path.h">
<polygon fill="white" stroke="black" points="499.5,-224.5 499.5,-243.5 543.5,-243.5 543.5,-224.5 499.5,-224.5"/>
<text text-anchor="middle" x="521.5" y="-231.5" font-family="Helvetica,sans-Serif" font-size="10.00">path.h</text>
</a>
</g>
</g>
<!-- Node1&#45;&gt;Node2 -->
<g id="edge1" class="edge"><title>Node1&#45;&gt;Node2</title>
<path fill="none" stroke="midnightblue" d="M649.415,-280.444C623.506,-271.239 582.177,-256.556 553.54,-246.383"/>
<polygon fill="midnightblue" stroke="midnightblue" points="554.58,-243.038 543.986,-242.988 552.237,-249.634 554.58,-243.038"/>
</g>
<!-- Node4 -->
<g id="node4" class="node"><title>Node4</title>
<g id="a_node4"><a xlink:href="global_8h.html" target="_top" xlink:title="../application/global.h">
<polygon fill="white" stroke="black" points="398,-56.5 398,-75.5 507,-75.5 507,-56.5 398,-56.5"/>
<text text-anchor="middle" x="452.5" y="-63.5" font-family="Helvetica,sans-Serif" font-size="10.00">../application/global.h</text>
</a>
</g>
</g>
<!-- Node1&#45;&gt;Node4 -->
<g id="edge21" class="edge"><title>Node1&#45;&gt;Node4</title>
<path fill="none" stroke="midnightblue" d="M671.731,-280.066C665.131,-247.575 641.006,-136.327 615.5,-112 589.317,-87.027 550.564,-75.6697 517.413,-70.6062"/>
<polygon fill="midnightblue" stroke="midnightblue" points="517.706,-67.1139 507.325,-69.2287 516.759,-74.0495 517.706,-67.1139"/>
</g>
<!-- Node9 -->
<g id="node9" class="node"><title>Node9</title>
<polygon fill="white" stroke="#bfbfbf" points="566,-112.5 566,-131.5 607,-131.5 607,-112.5 566,-112.5"/>
<text text-anchor="middle" x="586.5" y="-119.5" font-family="Helvetica,sans-Serif" font-size="10.00">string</text>
</g>
<!-- Node1&#45;&gt;Node9 -->
<g id="edge29" class="edge"><title>Node1&#45;&gt;Node9</title>
<path fill="none" stroke="midnightblue" d="M659.572,-280.321C647.782,-272.282 631.285,-259.283 621.5,-244 600.742,-211.58 591.982,-166.53 588.535,-141.551"/>
<polygon fill="midnightblue" stroke="midnightblue" points="592.006,-141.097 587.301,-131.604 585.059,-141.959 592.006,-141.097"/>
</g>
<!-- Node13 -->
<g id="node13" class="node"><title>Node13</title>
<g id="a_node13"><a xlink:href="widen_8h.html" target="_top" xlink:title="../conversion/widen.h">
<polygon fill="white" stroke="black" points="663.5,-168.5 663.5,-187.5 773.5,-187.5 773.5,-168.5 663.5,-168.5"/>
<text text-anchor="middle" x="718.5" y="-175.5" font-family="Helvetica,sans-Serif" font-size="10.00">../conversion/widen.h</text>
</a>
</g>
</g>
<!-- Node1&#45;&gt;Node13 -->
<g id="edge22" class="edge"><title>Node1&#45;&gt;Node13</title>
<path fill="none" stroke="midnightblue" d="M675.329,-280.36C678.166,-267.688 684.178,-243.458 692.5,-224 696.58,-214.46 702.241,-204.41 707.24,-196.234"/>
<polygon fill="midnightblue" stroke="midnightblue" points="710.287,-197.962 712.668,-187.639 704.369,-194.224 710.287,-197.962"/>
</g>
<!-- Node17 -->
<g id="node17" class="node"><title>Node17</title>
<polygon fill="white" stroke="#bfbfbf" points="701.5,-224.5 701.5,-243.5 753.5,-243.5 753.5,-224.5 701.5,-224.5"/>
<text text-anchor="middle" x="727.5" y="-231.5" font-family="Helvetica,sans-Serif" font-size="10.00">sstream</text>
</g>
<!-- Node1&#45;&gt;Node17 -->
<g id="edge30" class="edge"><title>Node1&#45;&gt;Node17</title>
<path fill="none" stroke="midnightblue" d="M682.417,-280.083C690.28,-272.22 701.931,-260.569 711.419,-251.081"/>
<polygon fill="midnightblue" stroke="midnightblue" points="714.153,-253.297 718.749,-243.751 709.203,-248.347 714.153,-253.297"/>
</g>
<!-- Node18 -->
<g id="node18" class="node"><title>Node18</title>
<polygon fill="white" stroke="#bfbfbf" points="771.5,-224.5 771.5,-243.5 821.5,-243.5 821.5,-224.5 771.5,-224.5"/>
<text text-anchor="middle" x="796.5" y="-231.5" font-family="Helvetica,sans-Serif" font-size="10.00">fstream</text>
</g>
<!-- Node1&#45;&gt;Node18 -->
<g id="edge31" class="edge"><title>Node1&#45;&gt;Node18</title>
<path fill="none" stroke="midnightblue" d="M692.99,-280.444C713.142,-271.596 744.823,-257.687 767.831,-247.586"/>
<polygon fill="midnightblue" stroke="midnightblue" points="769.352,-250.741 777.101,-243.516 766.538,-244.332 769.352,-250.741"/>
</g>
<!-- Node19 -->
<g id="node19" class="node"><title>Node19</title>
<polygon fill="white" stroke="#bfbfbf" points="840,-224.5 840,-243.5 885,-243.5 885,-224.5 840,-224.5"/>
<text text-anchor="middle" x="862.5" y="-231.5" font-family="Helvetica,sans-Serif" font-size="10.00">cstdlib</text>
</g>
<!-- Node1&#45;&gt;Node19 -->
<g id="edge32" class="edge"><title>Node1&#45;&gt;Node19</title>
<path fill="none" stroke="midnightblue" d="M703.448,-280.444C737.932,-270.591 794.383,-254.462 829.935,-244.304"/>
<polygon fill="midnightblue" stroke="midnightblue" points="831.157,-247.595 839.811,-241.483 829.234,-240.865 831.157,-247.595"/>
</g>
<!-- Node3 -->
<g id="node3" class="node"><title>Node3</title>
<g id="a_node3"><a xlink:href="binarywriter_8h.html" target="_top" xlink:title="binarywriter.h">
<polygon fill="white" stroke="black" points="380,-168.5 380,-187.5 455,-187.5 455,-168.5 380,-168.5"/>
<text text-anchor="middle" x="417.5" y="-175.5" font-family="Helvetica,sans-Serif" font-size="10.00">binarywriter.h</text>
</a>
</g>
</g>
<!-- Node2&#45;&gt;Node3 -->
<g id="edge2" class="edge"><title>Node2&#45;&gt;Node3</title>
<path fill="none" stroke="midnightblue" d="M504.791,-224.324C488.188,-215.703 462.498,-202.364 443.28,-192.386"/>
<polygon fill="midnightblue" stroke="midnightblue" points="444.656,-189.156 434.168,-187.655 441.43,-195.369 444.656,-189.156"/>
</g>
<!-- Node2&#45;&gt;Node4 -->
<g id="edge19" class="edge"><title>Node2&#45;&gt;Node4</title>
<path fill="none" stroke="midnightblue" d="M523.79,-224.406C528.832,-203.597 538.898,-149.464 518.5,-112 510.849,-97.9474 496.689,-87.4211 483.44,-80.097"/>
<polygon fill="midnightblue" stroke="midnightblue" points="485.003,-76.9651 474.505,-75.534 481.819,-83.1993 485.003,-76.9651"/>
</g>
<!-- Node2&#45;&gt;Node9 -->
<g id="edge20" class="edge"><title>Node2&#45;&gt;Node9</title>
<path fill="none" stroke="midnightblue" d="M526.6,-224.368C537.28,-206.296 562.168,-164.176 576.273,-140.307"/>
<polygon fill="midnightblue" stroke="midnightblue" points="579.349,-141.981 581.423,-131.591 573.323,-138.42 579.349,-141.981"/>
</g>
<!-- Node11 -->
<g id="node11" class="node"><title>Node11</title>
<g id="a_node11"><a xlink:href="binaryreader_8h.html" target="_top" xlink:title="binaryreader.h">
<polygon fill="white" stroke="black" points="252.5,-168.5 252.5,-187.5 330.5,-187.5 330.5,-168.5 252.5,-168.5"/>
<text text-anchor="middle" x="291.5" y="-175.5" font-family="Helvetica,sans-Serif" font-size="10.00">binaryreader.h</text>
</a>
</g>
</g>
<!-- Node2&#45;&gt;Node11 -->
<g id="edge12" class="edge"><title>Node2&#45;&gt;Node11</title>
<path fill="none" stroke="midnightblue" d="M499.447,-227.822C462.315,-219.104 386.569,-201.321 337.471,-189.793"/>
<polygon fill="midnightblue" stroke="midnightblue" points="338.259,-186.383 327.724,-187.505 336.659,-193.198 338.259,-186.383"/>
</g>
<!-- Node3&#45;&gt;Node4 -->
<g id="edge3" class="edge"><title>Node3&#45;&gt;Node4</title>
<path fill="none" stroke="midnightblue" d="M408.145,-168.476C395.582,-155.949 375.985,-131.897 386.5,-112 393.924,-97.9533 407.921,-87.4667 421.121,-80.167"/>
<polygon fill="midnightblue" stroke="midnightblue" points="422.723,-83.2788 430.041,-75.6178 419.543,-77.0428 422.723,-83.2788"/>
</g>
<!-- Node5 -->
<g id="node5" class="node"><title>Node5</title>
<g id="a_node5"><a xlink:href="types_8h.html" target="_top" xlink:title="../conversion/types.h">
<polygon fill="white" stroke="black" points="130.5,-56.5 130.5,-75.5 238.5,-75.5 238.5,-56.5 130.5,-56.5"/>
<text text-anchor="middle" x="184.5" y="-63.5" font-family="Helvetica,sans-Serif" font-size="10.00">../conversion/types.h</text>
</a>
</g>
</g>
<!-- Node3&#45;&gt;Node5 -->
<g id="edge4" class="edge"><title>Node3&#45;&gt;Node5</title>
<path fill="none" stroke="midnightblue" d="M399.217,-168.368C358.468,-149.131 260.009,-102.648 211.891,-79.9314"/>
<polygon fill="midnightblue" stroke="midnightblue" points="213.235,-76.6956 202.698,-75.5914 210.247,-83.0257 213.235,-76.6956"/>
</g>
<!-- Node7 -->
<g id="node7" class="node"><title>Node7</title>
<g id="a_node7"><a xlink:href="binaryconversion_8h.html" target="_top" xlink:title="../conversion/binaryconversion.h">
<polygon fill="white" stroke="black" points="105.5,-112.5 105.5,-131.5 263.5,-131.5 263.5,-112.5 105.5,-112.5"/>
<text text-anchor="middle" x="184.5" y="-119.5" font-family="Helvetica,sans-Serif" font-size="10.00">../conversion/binaryconversion.h</text>
</a>
</g>
</g>
<!-- Node3&#45;&gt;Node7 -->
<g id="edge6" class="edge"><title>Node3&#45;&gt;Node7</title>
<path fill="none" stroke="midnightblue" d="M380.58,-168.444C340.105,-159.063 275.079,-143.993 231.116,-133.804"/>
<polygon fill="midnightblue" stroke="midnightblue" points="231.779,-130.365 221.247,-131.516 230.198,-137.184 231.779,-130.365"/>
</g>
<!-- Node8 -->
<g id="node8" class="node"><title>Node8</title>
<polygon fill="white" stroke="#bfbfbf" points="395.5,-112.5 395.5,-131.5 439.5,-131.5 439.5,-112.5 395.5,-112.5"/>
<text text-anchor="middle" x="417.5" y="-119.5" font-family="Helvetica,sans-Serif" font-size="10.00">vector</text>
</g>
<!-- Node3&#45;&gt;Node8 -->
<g id="edge9" class="edge"><title>Node3&#45;&gt;Node8</title>
<path fill="none" stroke="midnightblue" d="M417.5,-168.083C417.5,-161.006 417.5,-150.861 417.5,-141.986"/>
<polygon fill="midnightblue" stroke="midnightblue" points="421,-141.751 417.5,-131.751 414,-141.751 421,-141.751"/>
</g>
<!-- Node3&#45;&gt;Node9 -->
<g id="edge10" class="edge"><title>Node3&#45;&gt;Node9</title>
<path fill="none" stroke="midnightblue" d="M444.279,-168.444C474.765,-158.702 524.452,-142.826 556.295,-132.651"/>
<polygon fill="midnightblue" stroke="midnightblue" points="557.5,-135.941 565.96,-129.563 555.369,-129.273 557.5,-135.941"/>
</g>
<!-- Node10 -->
<g id="node10" class="node"><title>Node10</title>
<polygon fill="white" stroke="#bfbfbf" points="457.5,-112.5 457.5,-131.5 509.5,-131.5 509.5,-112.5 457.5,-112.5"/>
<text text-anchor="middle" x="483.5" y="-119.5" font-family="Helvetica,sans-Serif" font-size="10.00">ostream</text>
</g>
<!-- Node3&#45;&gt;Node10 -->
<g id="edge11" class="edge"><title>Node3&#45;&gt;Node10</title>
<path fill="none" stroke="midnightblue" d="M428.104,-168.324C437.956,-160.263 452.851,-148.077 464.715,-138.369"/>
<polygon fill="midnightblue" stroke="midnightblue" points="467.18,-140.875 472.703,-131.834 462.747,-135.457 467.18,-140.875"/>
</g>
<!-- Node6 -->
<g id="node6" class="node"><title>Node6</title>
<polygon fill="white" stroke="#bfbfbf" points="161.5,-0.5 161.5,-19.5 207.5,-19.5 207.5,-0.5 161.5,-0.5"/>
<text text-anchor="middle" x="184.5" y="-7.5" font-family="Helvetica,sans-Serif" font-size="10.00">cstdint</text>
</g>
<!-- Node5&#45;&gt;Node6 -->
<g id="edge5" class="edge"><title>Node5&#45;&gt;Node6</title>
<path fill="none" stroke="midnightblue" d="M184.5,-56.083C184.5,-49.0059 184.5,-38.8611 184.5,-29.9865"/>
<polygon fill="midnightblue" stroke="midnightblue" points="188,-29.751 184.5,-19.7511 181,-29.7511 188,-29.751"/>
</g>
<!-- Node7&#45;&gt;Node4 -->
<g id="edge8" class="edge"><title>Node7&#45;&gt;Node4</title>
<path fill="none" stroke="midnightblue" d="M226.965,-112.444C273.913,-102.984 349.576,-87.7384 400.154,-77.5472"/>
<polygon fill="midnightblue" stroke="midnightblue" points="401.122,-80.9228 410.233,-75.5164 399.739,-74.0607 401.122,-80.9228"/>
</g>
<!-- Node7&#45;&gt;Node5 -->
<g id="edge7" class="edge"><title>Node7&#45;&gt;Node5</title>
<path fill="none" stroke="midnightblue" d="M184.5,-112.083C184.5,-105.006 184.5,-94.8611 184.5,-85.9865"/>
<polygon fill="midnightblue" stroke="midnightblue" points="188,-85.751 184.5,-75.7511 181,-85.7511 188,-85.751"/>
</g>
<!-- Node11&#45;&gt;Node4 -->
<g id="edge13" class="edge"><title>Node11&#45;&gt;Node4</title>
<path fill="none" stroke="midnightblue" d="M302.832,-168.317C319.562,-155.592 351.973,-131.295 380.5,-112 396.525,-101.161 415.044,-89.6073 429.287,-80.9213"/>
<polygon fill="midnightblue" stroke="midnightblue" points="431.223,-83.8407 437.96,-75.6638 427.595,-77.8546 431.223,-83.8407"/>
</g>
<!-- Node11&#45;&gt;Node5 -->
<g id="edge14" class="edge"><title>Node11&#45;&gt;Node5</title>
<path fill="none" stroke="midnightblue" d="M252.286,-173.618C201.048,-168.294 115.588,-155.995 96.5,-132 78.2829,-109.1 113.863,-90.2218 145.087,-78.8182"/>
<polygon fill="midnightblue" stroke="midnightblue" points="146.276,-82.1107 154.573,-75.523 143.979,-75.4983 146.276,-82.1107"/>
</g>
<!-- Node11&#45;&gt;Node7 -->
<g id="edge15" class="edge"><title>Node11&#45;&gt;Node7</title>
<path fill="none" stroke="midnightblue" d="M274.309,-168.324C257.149,-159.664 230.554,-146.242 210.753,-136.249"/>
<polygon fill="midnightblue" stroke="midnightblue" points="212.153,-133.035 201.649,-131.655 208.999,-139.285 212.153,-133.035"/>
</g>
<!-- Node11&#45;&gt;Node8 -->
<g id="edge16" class="edge"><title>Node11&#45;&gt;Node8</title>
<path fill="none" stroke="midnightblue" d="M311.465,-168.444C332.109,-159.596 364.563,-145.687 388.132,-135.586"/>
<polygon fill="midnightblue" stroke="midnightblue" points="389.816,-138.673 397.628,-131.516 387.058,-132.239 389.816,-138.673"/>
</g>
<!-- Node11&#45;&gt;Node9 -->
<g id="edge17" class="edge"><title>Node11&#45;&gt;Node9</title>
<path fill="none" stroke="midnightblue" d="M330.674,-169.829C390.182,-158.936 502.119,-138.446 555.998,-128.583"/>
<polygon fill="midnightblue" stroke="midnightblue" points="556.761,-132.002 565.968,-126.758 555.501,-125.116 556.761,-132.002"/>
</g>
<!-- Node12 -->
<g id="node12" class="node"><title>Node12</title>
<polygon fill="white" stroke="#bfbfbf" points="0,-112.5 0,-131.5 49,-131.5 49,-112.5 0,-112.5"/>
<text text-anchor="middle" x="24.5" y="-119.5" font-family="Helvetica,sans-Serif" font-size="10.00">istream</text>
</g>
<!-- Node11&#45;&gt;Node12 -->
<g id="edge18" class="edge"><title>Node11&#45;&gt;Node12</title>
<path fill="none" stroke="midnightblue" d="M252.288,-169.655C206.799,-161.043 129.585,-146.143 63.5,-132 62.0561,-131.691 60.5832,-131.371 59.096,-131.045"/>
<polygon fill="midnightblue" stroke="midnightblue" points="59.7546,-127.606 49.231,-128.832 58.2228,-134.436 59.7546,-127.606"/>
</g>
<!-- Node13&#45;&gt;Node4 -->
<g id="edge23" class="edge"><title>Node13&#45;&gt;Node4</title>
<path fill="none" stroke="midnightblue" d="M723.256,-168.252C729.984,-154.549 740.041,-127.947 726.5,-112 700.217,-81.0482 589.87,-71.3457 517.48,-68.3294"/>
<polygon fill="midnightblue" stroke="midnightblue" points="517.216,-64.8168 507.09,-67.9312 516.948,-71.8117 517.216,-64.8168"/>
</g>
<!-- Node13&#45;&gt;Node8 -->
<g id="edge25" class="edge"><title>Node13&#45;&gt;Node8</title>
<path fill="none" stroke="midnightblue" d="M663.316,-169.738C610.735,-162.385 529.201,-149.854 449.926,-132.11"/>
<polygon fill="midnightblue" stroke="midnightblue" points="450.296,-128.605 439.769,-129.804 448.747,-135.431 450.296,-128.605"/>
</g>
<!-- Node13&#45;&gt;Node9 -->
<g id="edge24" class="edge"><title>Node13&#45;&gt;Node9</title>
<path fill="none" stroke="midnightblue" d="M697.584,-168.444C675.764,-159.517 641.35,-145.439 616.608,-135.317"/>
<polygon fill="midnightblue" stroke="midnightblue" points="617.899,-132.063 607.318,-131.516 615.248,-138.542 617.899,-132.063"/>
</g>
<!-- Node14 -->
<g id="node14" class="node"><title>Node14</title>
<polygon fill="white" stroke="#bfbfbf" points="773.5,-112.5 773.5,-131.5 815.5,-131.5 815.5,-112.5 773.5,-112.5"/>
<text text-anchor="middle" x="794.5" y="-119.5" font-family="Helvetica,sans-Serif" font-size="10.00">locale</text>
</g>
<!-- Node13&#45;&gt;Node14 -->
<g id="edge26" class="edge"><title>Node13&#45;&gt;Node14</title>
<path fill="none" stroke="midnightblue" d="M730.711,-168.324C742.276,-160.107 759.875,-147.602 773.661,-137.807"/>
<polygon fill="midnightblue" stroke="midnightblue" points="775.943,-140.479 782.067,-131.834 771.888,-134.773 775.943,-140.479"/>
</g>
<!-- Node15 -->
<g id="node15" class="node"><title>Node15</title>
<polygon fill="white" stroke="#bfbfbf" points="834,-112.5 834,-131.5 893,-131.5 893,-112.5 834,-112.5"/>
<text text-anchor="middle" x="863.5" y="-119.5" font-family="Helvetica,sans-Serif" font-size="10.00">functional</text>
</g>
<!-- Node13&#45;&gt;Node15 -->
<g id="edge27" class="edge"><title>Node13&#45;&gt;Node15</title>
<path fill="none" stroke="midnightblue" d="M741.476,-168.444C765.657,-159.438 803.918,-145.189 831.146,-135.049"/>
<polygon fill="midnightblue" stroke="midnightblue" points="832.482,-138.286 840.632,-131.516 830.039,-131.727 832.482,-138.286"/>
</g>
<!-- Node16 -->
<g id="node16" class="node"><title>Node16</title>
<polygon fill="white" stroke="#bfbfbf" points="663.5,-112.5 663.5,-131.5 717.5,-131.5 717.5,-112.5 663.5,-112.5"/>
<text text-anchor="middle" x="690.5" y="-119.5" font-family="Helvetica,sans-Serif" font-size="10.00">iostream</text>
</g>
<!-- Node13&#45;&gt;Node16 -->
<g id="edge28" class="edge"><title>Node13&#45;&gt;Node16</title>
<path fill="none" stroke="midnightblue" d="M713.876,-168.083C710.044,-160.691 704.476,-149.953 699.735,-140.811"/>
<polygon fill="midnightblue" stroke="midnightblue" points="702.748,-139.018 695.038,-131.751 696.534,-142.24 702.748,-139.018"/>
</g>
</g>
</svg>
