<?xml version="1.0" encoding="UTF-8" standalone="no"?>
<!DOCTYPE svg PUBLIC "-//W3C//DTD SVG 1.1//EN"
 "http://www.w3.org/Graphics/SVG/1.1/DTD/svg11.dtd">
<!-- Generated by graphviz version 2.38.0 (20140413.2041)
 -->
<!-- Title: conversion/stringconversion.h Pages: 1 -->
<svg width="605pt" height="196pt"
 viewBox="0.00 0.00 604.50 196.00" xmlns="http://www.w3.org/2000/svg" xmlns:xlink="http://www.w3.org/1999/xlink">
<g id="graph0" class="graph" transform="scale(1 1) rotate(0) translate(4 192)">
<title>conversion/stringconversion.h</title>
<polygon fill="white" stroke="none" points="-4,4 -4,-192 600.5,-192 600.5,4 -4,4"/>
<!-- Node1 -->
<g id="node1" class="node"><title>Node1</title>
<polygon fill="#bfbfbf" stroke="black" points="241.5,-168.5 241.5,-187.5 387.5,-187.5 387.5,-168.5 241.5,-168.5"/>
<text text-anchor="middle" x="314.5" y="-175.5" font-family="Helvetica,sans-Serif" font-size="10.00">conversion/stringconversion.h</text>
</g>
<!-- Node2 -->
<g id="node2" class="node"><title>Node2</title>
<g id="a_node2"><a xlink:href="conversionexception_8h.html" target="_top" xlink:title="conversionexception.h">
<polygon fill="white" stroke="black" points="40.5,-112.5 40.5,-131.5 154.5,-131.5 154.5,-112.5 40.5,-112.5"/>
<text text-anchor="middle" x="97.5" y="-119.5" font-family="Helvetica,sans-Serif" font-size="10.00">conversionexception.h</text>
</a>
</g>
</g>
<!-- Node1&#45;&gt;Node2 -->
<g id="edge1" class="edge"><title>Node1&#45;&gt;Node2</title>
<path fill="none" stroke="midnightblue" d="M280.116,-168.444C242.578,-159.102 182.369,-144.119 141.433,-133.933"/>
<polygon fill="midnightblue" stroke="midnightblue" points="142.273,-130.535 131.723,-131.516 140.582,-137.328 142.273,-130.535"/>
</g>
<!-- Node5 -->
<g id="node5" class="node"><title>Node5</title>
<polygon fill="white" stroke="#bfbfbf" points="0,-56.5 0,-75.5 41,-75.5 41,-56.5 0,-56.5"/>
<text text-anchor="middle" x="20.5" y="-63.5" font-family="Helvetica,sans-Serif" font-size="10.00">string</text>
</g>
<!-- Node1&#45;&gt;Node5 -->
<g id="edge9" class="edge"><title>Node1&#45;&gt;Node5</title>
<path fill="none" stroke="midnightblue" d="M241.338,-174.81C167.493,-171.002 60.3566,-160.571 31.5,-132 19.5634,-120.182 17.6979,-100.55 18.2792,-85.9488"/>
<polygon fill="midnightblue" stroke="midnightblue" points="21.8017,-85.8134 19.1244,-75.5624 14.8248,-85.2456 21.8017,-85.8134"/>
</g>
<!-- Node6 -->
<g id="node6" class="node"><title>Node6</title>
<g id="a_node6"><a xlink:href="binaryconversion_8h.html" target="_top" xlink:title="binaryconversion.h">
<polygon fill="white" stroke="black" points="172.5,-112.5 172.5,-131.5 270.5,-131.5 270.5,-112.5 172.5,-112.5"/>
<text text-anchor="middle" x="221.5" y="-119.5" font-family="Helvetica,sans-Serif" font-size="10.00">binaryconversion.h</text>
</a>
</g>
</g>
<!-- Node1&#45;&gt;Node6 -->
<g id="edge5" class="edge"><title>Node1&#45;&gt;Node6</title>
<path fill="none" stroke="midnightblue" d="M299.558,-168.324C284.915,-159.822 262.366,-146.729 245.262,-136.797"/>
<polygon fill="midnightblue" stroke="midnightblue" points="246.81,-133.649 236.405,-131.655 243.295,-139.703 246.81,-133.649"/>
</g>
<!-- Node9 -->
<g id="node9" class="node"><title>Node9</title>
<polygon fill="white" stroke="#bfbfbf" points="288.5,-112.5 288.5,-131.5 340.5,-131.5 340.5,-112.5 288.5,-112.5"/>
<text text-anchor="middle" x="314.5" y="-119.5" font-family="Helvetica,sans-Serif" font-size="10.00">sstream</text>
</g>
<!-- Node1&#45;&gt;Node9 -->
<g id="edge10" class="edge"><title>Node1&#45;&gt;Node9</title>
<path fill="none" stroke="midnightblue" d="M314.5,-168.083C314.5,-161.006 314.5,-150.861 314.5,-141.986"/>
<polygon fill="midnightblue" stroke="midnightblue" points="318,-141.751 314.5,-131.751 311,-141.751 318,-141.751"/>
</g>
<!-- Node10 -->
<g id="node10" class="node"><title>Node10</title>
<polygon fill="white" stroke="#bfbfbf" points="358.5,-112.5 358.5,-131.5 408.5,-131.5 408.5,-112.5 358.5,-112.5"/>
<text text-anchor="middle" x="383.5" y="-119.5" font-family="Helvetica,sans-Serif" font-size="10.00">iomanip</text>
</g>
<!-- Node1&#45;&gt;Node10 -->
<g id="edge11" class="edge"><title>Node1&#45;&gt;Node10</title>
<path fill="none" stroke="midnightblue" d="M325.586,-168.324C335.986,-160.185 351.761,-147.839 364.222,-138.087"/>
<polygon fill="midnightblue" stroke="midnightblue" points="366.494,-140.753 372.212,-131.834 362.18,-135.241 366.494,-140.753"/>
</g>
<!-- Node11 -->
<g id="node11" class="node"><title>Node11</title>
<polygon fill="white" stroke="#bfbfbf" points="427,-112.5 427,-131.5 500,-131.5 500,-112.5 427,-112.5"/>
<text text-anchor="middle" x="463.5" y="-119.5" font-family="Helvetica,sans-Serif" font-size="10.00">initializer_list</text>
</g>
<!-- Node1&#45;&gt;Node11 -->
<g id="edge12" class="edge"><title>Node1&#45;&gt;Node11</title>
<path fill="none" stroke="midnightblue" d="M338.109,-168.444C362.958,-159.438 402.274,-145.189 430.254,-135.049"/>
<polygon fill="midnightblue" stroke="midnightblue" points="431.792,-138.214 440.001,-131.516 429.407,-131.633 431.792,-138.214"/>
</g>
<!-- Node12 -->
<g id="node12" class="node"><title>Node12</title>
<polygon fill="white" stroke="#bfbfbf" points="518.5,-112.5 518.5,-131.5 596.5,-131.5 596.5,-112.5 518.5,-112.5"/>
<text text-anchor="middle" x="557.5" y="-119.5" font-family="Helvetica,sans-Serif" font-size="10.00">bits/codecvt.h</text>
</g>
<!-- Node1&#45;&gt;Node12 -->
<g id="edge13" class="edge"><title>Node1&#45;&gt;Node12</title>
<path fill="none" stroke="midnightblue" d="M353.004,-168.444C395.306,-159.043 463.319,-143.929 509.173,-133.739"/>
<polygon fill="midnightblue" stroke="midnightblue" points="510.173,-137.102 519.176,-131.516 508.655,-130.269 510.173,-137.102"/>
</g>
<!-- Node3 -->
<g id="node3" class="node"><title>Node3</title>
<g id="a_node3"><a xlink:href="global_8h.html" target="_top" xlink:title="../application/global.h">
<polygon fill="white" stroke="black" points="140,-56.5 140,-75.5 249,-75.5 249,-56.5 140,-56.5"/>
<text text-anchor="middle" x="194.5" y="-63.5" font-family="Helvetica,sans-Serif" font-size="10.00">../application/global.h</text>
</a>
</g>
</g>
<!-- Node2&#45;&gt;Node3 -->
<g id="edge2" class="edge"><title>Node2&#45;&gt;Node3</title>
<path fill="none" stroke="midnightblue" d="M113.085,-112.324C128.499,-103.743 152.312,-90.486 170.21,-80.5224"/>
<polygon fill="midnightblue" stroke="midnightblue" points="171.919,-83.5767 178.954,-75.6545 168.514,-77.4606 171.919,-83.5767"/>
</g>
<!-- Node4 -->
<g id="node4" class="node"><title>Node4</title>
<polygon fill="white" stroke="#bfbfbf" points="63,-56.5 63,-75.5 122,-75.5 122,-56.5 63,-56.5"/>
<text text-anchor="middle" x="92.5" y="-63.5" font-family="Helvetica,sans-Serif" font-size="10.00">stdexcept</text>
</g>
<!-- Node2&#45;&gt;Node4 -->
<g id="edge3" class="edge"><title>Node2&#45;&gt;Node4</title>
<path fill="none" stroke="midnightblue" d="M96.6744,-112.083C96.0191,-105.006 95.0797,-94.8611 94.258,-85.9865"/>
<polygon fill="midnightblue" stroke="midnightblue" points="97.7174,-85.3858 93.3103,-75.7511 90.7473,-86.0312 97.7174,-85.3858"/>
</g>
<!-- Node2&#45;&gt;Node5 -->
<g id="edge4" class="edge"><title>Node2&#45;&gt;Node5</title>
<path fill="none" stroke="midnightblue" d="M85.1286,-112.324C73.3415,-104.058 55.3677,-91.4527 41.3645,-81.6322"/>
<polygon fill="midnightblue" stroke="midnightblue" points="43.0376,-78.5307 32.8407,-75.6545 39.0184,-84.2619 43.0376,-78.5307"/>
</g>
<!-- Node6&#45;&gt;Node3 -->
<g id="edge8" class="edge"><title>Node6&#45;&gt;Node3</title>
<path fill="none" stroke="midnightblue" d="M217.041,-112.083C213.346,-104.691 207.977,-93.9533 203.406,-84.8111"/>
<polygon fill="midnightblue" stroke="midnightblue" points="206.478,-83.1301 198.876,-75.7511 200.217,-86.2606 206.478,-83.1301"/>
</g>
<!-- Node7 -->
<g id="node7" class="node"><title>Node7</title>
<g id="a_node7"><a xlink:href="types_8h.html" target="_top" xlink:title="types.h">
<polygon fill="white" stroke="black" points="267,-56.5 267,-75.5 316,-75.5 316,-56.5 267,-56.5"/>
<text text-anchor="middle" x="291.5" y="-63.5" font-family="Helvetica,sans-Serif" font-size="10.00">types.h</text>
</a>
</g>
</g>
<!-- Node6&#45;&gt;Node7 -->
<g id="edge6" class="edge"><title>Node6&#45;&gt;Node7</title>
<path fill="none" stroke="midnightblue" d="M232.747,-112.324C243.297,-104.185 259.301,-91.8395 271.942,-82.0874"/>
<polygon fill="midnightblue" stroke="midnightblue" points="274.269,-84.7132 280.049,-75.8339 269.993,-79.1707 274.269,-84.7132"/>
</g>
<!-- Node8 -->
<g id="node8" class="node"><title>Node8</title>
<polygon fill="white" stroke="#bfbfbf" points="268.5,-0.5 268.5,-19.5 314.5,-19.5 314.5,-0.5 268.5,-0.5"/>
<text text-anchor="middle" x="291.5" y="-7.5" font-family="Helvetica,sans-Serif" font-size="10.00">cstdint</text>
</g>
<!-- Node7&#45;&gt;Node8 -->
<g id="edge7" class="edge"><title>Node7&#45;&gt;Node8</title>
<path fill="none" stroke="midnightblue" d="M291.5,-56.083C291.5,-49.0059 291.5,-38.8611 291.5,-29.9865"/>
<polygon fill="midnightblue" stroke="midnightblue" points="295,-29.751 291.5,-19.7511 288,-29.7511 295,-29.751"/>
</g>
</g>
</svg>
